<svg xmlns="http://www.w3.org/2000/svg" viewBox="0 0 3951.6 389.3"><path d="M935.5,375.8V16.5l219.6,211.3c6,6,12,12.4,18.2,19.1s12.6,14.4,19.3,22.9V30.2h52V389.3L1020.5,174.2c-6-5.8-11.7-12-17.3-18.4s-10.9-13.2-16-20.3V375.8Z" style="fill:#333332"/><path d="M1315.2,68.7a30.4,30.4,0,0,1,9.5-22.5,31.7,31.7,0,0,1,22.8-9.4c9.1,0,16.7,3,22.8,9.1a31.3,31.3,0,0,1,9.1,22.8,31.6,31.6,0,0,1-9.2,23,30.8,30.8,0,0,1-22.7,9.3,31.4,31.4,0,0,1-22.8-9.5A31.1,31.1,0,0,1,1315.2,68.7Zm6.8,320.6V165.5h51.2V389.3Z" style="fill:#333332"/><path d="M1458.5,389.3v-179h-39.2V165.5h39.2V80.7h51.2v84.8h39.2v44.8h-39.2v179Z" style="fill:#333332"/><path d="M1644.3,201.1c5.5-14.8,12.8-25.7,21.8-32.8s20.3-10.6,33.7-10.6a85.1,85.1,0,0,1,21.3,2.6,103,103,0,0,1,20.7,7.5l-18.4,43.5a46.4,46.4,0,0,0-14.3-7,60.6,60.6,0,0,0-17.1-2.2q-25.5,0-36.6,20.4t-11.1,68.6v98.2H1593V165h51.3Z" style="fill:#333332"/><path d="M1754.5,268.4a115.6,115.6,0,0,1,9.4-46.4,119.2,119.2,0,0,1,26.7-38.8,121.4,121.4,0,0,1,39.7-25.8,130.1,130.1,0,0,1,94.6,0,120.9,120.9,0,0,1,40,26.5,118.8,118.8,0,0,1,26.9,38.9,116.5,116.5,0,0,1,9.2,45.6,118.6,118.6,0,0,1-9.1,46.5,113.5,113.5,0,0,1-26.5,38.5,128.7,128.7,0,0,1-40.9,26.8,124,124,0,0,1-160.8-65.5A118.1,118.1,0,0,1,1754.5,268.4Zm192.4.5q0-31.2-20-52.8t-49.1-21.6c-19.2,0-35.6,7.2-49,21.6s-20.2,32-20.2,52.8,6.7,38.3,20.2,52.7,29.8,21.7,49,21.7,35.5-7.3,49-21.7S1946.9,289.7,1946.9,268.9Z" style="fill:#333332"/><path d="M2177.1,91.3v298h-56.2V91.3h-91.8V43.7h239.4V91.3Z" style="fill:#333332"/><path d="M2474.1,275.7H2295.2q1.8,31.5,18.6,49t44.6,17.6c16.6,0,30.3-3.5,41.4-10.4s20.6-18.1,28.8-33.5l43.2,24.1c-12.6,22.5-28.2,39.2-46.8,50.3s-40.3,16.5-65.4,16.5c-35.9,0-64.4-11-85.7-32.8s-31.8-51.1-31.8-87.6,10.9-64,32.9-86.5,50.2-33.9,84.6-33.9q54.2,0,84.3,30.9c20.2,20.6,30.2,49.5,30.2,86.6ZM2421,241.3c-2-16.1-8.2-28.3-18.4-36.8s-24.2-12.6-42-12.6-30.4,4.1-40.6,12.3-17.4,20.5-21.5,37.1Z" style="fill:#333332"/><path d="M2694.6,220a79,79,0,0,0-27.5-19.8,82.7,82.7,0,0,0-33.8-6.9c-21,0-37.7,6.8-50.3,20.3s-18.9,31.5-18.9,53.9,6.3,41.6,19,54.9,30.2,19.9,52.5,19.9c12.5,0,23.5-2.3,33.3-7s18.3-11.6,25.7-21.1v59a117.8,117.8,0,0,1-30.3,12.1,145.9,145.9,0,0,1-34.3,4c-35.1,0-63.8-11.2-85.9-33.5s-33.1-51.3-33.1-86.9,11.4-65.1,34.3-87.3,52.9-33.1,89.8-33.1a140.8,140.8,0,0,1,32.2,3.4,107.3,107.3,0,0,1,27.3,10.5Z" style="fill:#333332"/><path d="M2747.1,389.3V23.3h48.1V202.1c10.2-15.5,22.3-26.7,36.1-33.8s30.7-10.6,50.6-10.6c16.6,0,30.8,2.6,42.6,7.9a62,62,0,0,1,27.5,23.5,65.8,65.8,0,0,1,8.5,21.5c1.7,8.2,2.6,22.5,2.6,42.9V389.3h-51.7v-115q0-44.1-10.8-58.7c-7.1-9.6-19.8-14.5-38.1-14.5-12,0-22.6,2.2-32,6.6a53.4,53.4,0,0,0-22.1,18.7c-3.7,5.3-6.4,12.2-7.9,20.6s-2.2,21.9-2.2,40.3v102Z" style="fill:#333332"/><path d="M3320.8,389.3l-39.2-89h-137l-40.1,89h-59L3212.9,30,3380,389.3ZM3165.4,253.5h96.3l-35.4-78.8c-2-5.1-4.1-10.8-6.3-17.4s-4.5-13.8-6.7-21.8c-1.8,7.5-3.9,14.6-6,21.1s-4.3,12.6-6.5,18.1Z" style="fill:#333332"/><path d="M3382.6,339.5l42.5-23.2c3.2,11.2,9,19.7,17.5,25.5s19.4,8.8,32.8,8.8c11.5,0,20.5-2.7,27-7.9s9.8-12.5,9.8-21.6c0-12.2-11.6-22.5-34.9-31.2-7.9-2.8-13.9-5.2-18.2-7.1q-35.8-14.9-50.2-30.2c-9.5-10.2-14.2-22.7-14.2-37.3q0-30,23.4-48.6c15.7-12.5,36.4-18.7,62.3-18.7,17.3,0,32.1,3.2,44.5,9.6s21.3,15.4,27,27.2l-36.4,25.1a32.6,32.6,0,0,0-14-16.9,43,43,0,0,0-23.3-6.3c-9.7,0-17.6,2.3-23.5,7s-8.8,10.8-8.8,18.5q0,17.6,39.7,31.9c8.3,3,14.7,5.4,19.3,7.3,20.6,8.2,35.4,17.4,44.3,27.8s13.3,23.1,13.3,38.6q0,33.4-24.3,52.5c-16.2,12.6-38.6,19-67,19q-32.8,0-54.6-12.3T3382.6,339.5Z" style="fill:#333332"/><path d="M3609.7,68.7a30.5,30.5,0,0,1,9.6-22.5,31.7,31.7,0,0,1,22.8-9.4c9.1,0,16.7,3,22.8,9.1a31.3,31.3,0,0,1,9.1,22.8,31.3,31.3,0,0,1-9.3,23,30.4,30.4,0,0,1-22.6,9.3,32.6,32.6,0,0,1-32.4-32.3Zm6.9,320.6V165.5h51.2V389.3Z" style="fill:#333332"/><path d="M3951.6,380.1h-51.2V351c-9.2,12.9-19.8,22.6-32,28.8s-26.2,9.5-41.9,9.5q-47.5,0-74.8-32.5t-27.2-88.9q0-53.5,27.8-86.5c18.6-21.9,42.8-32.9,72.8-32.9q27.3,0,46.8,11.4a67.3,67.3,0,0,1,28.5,33V156.3h51.2Zm-49.8-112.6q0-34.8-16.2-54.1c-10.8-12.9-25.8-19.4-45.2-19.4s-34.6,6.7-45.7,20-16.6,31.7-16.6,55.4,5.3,42.1,16,55,25.8,19.3,45.4,19.3,33.4-7,44.9-21S3901.8,290.3,3901.8,267.5Z" style="fill:#333332"/><path d="M768.5,117,669,119.3l45.2,91.9H620.7L578.6,300H758l44,89.3,98-1.3Z" style="fill:#f86305"/><polygon points="401.3 389.3 501.2 389.3 646.2 91.8 754.4 91.4 710.4 0.3 460.4 0 416.1 91.9 547.5 91.9 401.3 389.3" style="fill:#333332"/><polygon points="501.2 116.9 403.2 116.7 316.2 292.1 251.3 159.2 202 257.1 266.7 388.8 366.6 389.3 501.2 116.9" style="fill:#f86305"/><polygon points="314.9 222.7 365 120.6 304.6 0 193 0 0 389.3 103.5 389 250.3 91.5 314.9 222.7" style="fill:#333332"/></svg>