<svg xmlns="http://www.w3.org/2000/svg" xmlns:xlink="http://www.w3.org/1999/xlink" viewBox="0 0 1961.1 1140.6"><defs><clipPath id="a" transform="translate(0.5 60.1)"><rect x="259.7" width="1660.3" height="1080" transform="translate(2179.7 1080) rotate(-180)" style="fill:none"/></clipPath><linearGradient id="b" x1="1334.05" y1="577" x2="1334.05" y2="-60.14" gradientTransform="matrix(-1, 0, 0, 1, 2420, 0)" gradientUnits="userSpaceOnUse"><stop offset="0" stop-color="#fefefe"/><stop offset="1" stop-color="#c6d9fa"/></linearGradient><linearGradient id="c" x1="849.2" y1="698.3" x2="849.2" y2="906.38" gradientTransform="matrix(-1, 0, 0, 1, 2420, 0)" gradientUnits="userSpaceOnUse"><stop offset="0" stop-color="#c6d9fa"/><stop offset="1" stop-color="#fefefe"/></linearGradient><linearGradient id="d" x1="656.7" y1="698.3" x2="656.7" y2="906.38" xlink:href="#c"/><linearGradient id="e" x1="1152.3" y1="698.3" x2="1152.3" y2="906.38" xlink:href="#c"/><linearGradient id="f" x1="1100.79" y1="698.3" x2="1100.79" y2="906.38" xlink:href="#c"/><linearGradient id="g" x1="740.46" y1="477.67" x2="851.02" y2="477.67" gradientTransform="matrix(-1, 0, 0, 1, 2420, 0)" gradientUnits="userSpaceOnUse"><stop offset="0" stop-color="#13469f"/><stop offset="1" stop-color="#0e55cb"/></linearGradient><linearGradient id="h" x1="1105.67" y1="426.57" x2="1113.46" y2="426.57" gradientTransform="matrix(-1, 0, 0, 1, 2420.5, 60.14)" xlink:href="#g"/><linearGradient id="i" x1="1105.67" y1="450.88" x2="1113.46" y2="450.88" gradientTransform="matrix(-1, 0, 0, 1, 2420.5, 60.14)" xlink:href="#g"/><linearGradient id="j" x1="1105.67" y1="475.19" x2="1113.46" y2="475.19" gradientTransform="matrix(-1, 0, 0, 1, 2420.5, 60.14)" xlink:href="#g"/><linearGradient id="k" x1="905.64" y1="657" x2="1166.36" y2="657" xlink:href="#g"/><linearGradient id="l" x1="981.24" y1="738.93" x2="1013.78" y2="738.93" gradientTransform="matrix(1, 0, 0, -1, 424.98, 1477.85)" xlink:href="#g"/><linearGradient id="m" x1="1058.22" y1="770.78" x2="1090.76" y2="770.78" gradientTransform="matrix(1, 0, 0, -1, 271.02, 1541.56)" xlink:href="#g"/><linearGradient id="n" x1="922.79" y1="696.74" x2="922.79" y2="405.22" gradientTransform="matrix(-0.71, -0.71, -0.71, 0.71, 2539.32, 813.89)" xlink:href="#b"/><linearGradient id="o" x1="756.56" y1="437.96" x2="719.01" y2="539.9" gradientTransform="matrix(-1, 0, 0, 1, 2420, 0)" gradientUnits="userSpaceOnUse"><stop offset="0" stop-color="#1d325f"/><stop offset="1" stop-color="#00030e"/></linearGradient><linearGradient id="p" x1="716.49" y1="559.76" x2="796.58" y2="479.68" xlink:href="#g"/><linearGradient id="q" x1="640.62" y1="681.26" x2="1068.18" y2="253.69" xlink:href="#g"/><linearGradient id="r" x1="674.06" y1="714.71" x2="1101.14" y2="287.63" xlink:href="#g"/><linearGradient id="s" x1="666.99" y1="710.12" x2="1097.48" y2="279.62" xlink:href="#g"/><linearGradient id="t" x1="664.07" y1="705.6" x2="1092.38" y2="277.29" xlink:href="#g"/><linearGradient id="u" x1="686.53" y1="798.05" x2="1155.85" y2="970.82" xlink:href="#g"/><linearGradient id="v" x1="691.67" y1="783.68" x2="1160.6" y2="956.31" xlink:href="#g"/><linearGradient id="w" x1="886.38" y1="679.68" x2="763.15" y2="926.13" xlink:href="#o"/><linearGradient id="x" x1="842.74" y1="657.86" x2="719.52" y2="904.31" xlink:href="#o"/><linearGradient id="y" x1="921.36" y1="698.3" x2="921.36" y2="906.38" xlink:href="#c"/><linearGradient id="z" x1="1204.85" y1="298.04" x2="1232.3" y2="298.04" gradientTransform="translate(-356.8)" xlink:href="#g"/><linearGradient id="aa" x1="1253.86" y1="298.23" x2="1281.32" y2="298.23" gradientTransform="translate(-356.8)" xlink:href="#g"/><linearGradient id="ab" x1="1310.86" y1="300.43" x2="1322.34" y2="300.43" gradientTransform="translate(-356.8)" xlink:href="#g"/><linearGradient id="ac" x1="1313.73" y1="298.15" x2="1319.48" y2="298.15" gradientTransform="translate(-356.8)" xlink:href="#g"/><linearGradient id="ad" x1="1319.44" y1="293.87" x2="1322.34" y2="293.87" gradientTransform="translate(-356.8)" xlink:href="#g"/><linearGradient id="ae" x1="1302.87" y1="298.15" x2="1330.34" y2="298.15" gradientTransform="translate(-356.8)" xlink:href="#g"/></defs><g style="isolation:isolate"><g style="clip-path:url(#a)"><rect x="259.7" width="1660.3" height="1080" transform="translate(2180.2 1140.1) rotate(-180)" style="fill:#fff"/><path d="M1960.6,497.9c-100.1,46.9-209.2,94.8-318.2,74.2-99.6-18.9-183.6-99.2-204.3-195.3-9-41.5-7-84.5-10.1-126.8s-12.6-86.3-40.4-119.1-78.3-50.7-117.3-31.2c-65.7,32.8-58.6,140.3-125.7,170.6-38.6,17.4-86,1.1-118.7-25.4-103.6-84-187.5-182.5-341-134.8-80.3,24.9-145.3,91.1-229.3,98.1-70.8,6-143.9-22.9-190.2-75.1S200.7,6.7,217.4-60.1H1960.6Z" transform="translate(0.5 60.1)" style="fill:url(#b)"/></g><path d="M1532.6,839.2a106.9,106.9,0,0,0,21,34.3,123.9,123.9,0,0,0,13.5,12.8l6.8,5.2a79.6,79.6,0,0,0,6.8,4.5,115.9,115.9,0,0,0,12.5,7c3.8,1.9,7.3,3.4,10.2,4.5,5.9,2.2,9.4,3.1,9.4,3.1s.6-3.7,1.1-9.8c.2-3,.4-6.7.7-10.8s.4-8.6.6-13.5v-7.4c0-2.6,0-5.2-.1-7.9-.2-5.2-.4-10.7-1-16.2a128.1,128.1,0,0,0-7.1-33.1,133.8,133.8,0,0,0-16-29.9c-3.1-4.6-6.5-8.9-9.7-13.1l-5.1-6-4.8-5.6-9.1-10-7.6-7.7c-4.3-4.4-7.2-6.8-7.2-6.8a98.8,98.8,0,0,0-5.1,8.5c-1.5,2.7-3.2,6.1-4.9,10a119,119,0,0,0-5,13.4c-.8,2.5-1.6,5.1-2.3,7.8s-1.2,5.5-1.8,8.4a134.3,134.3,0,0,0-2,18.5A109.5,109.5,0,0,0,1532.6,839.2Z" transform="translate(0.5 60.1)" style="fill:url(#c)"/><path d="M1526.5,806.3v-2.1c2.8,1.4,6.3,3.4,10.3,5.8a144.9,144.9,0,0,1,13,8.6,116.6,116.6,0,0,1,26.3,25c-4.8-11-8.9-22.4-12.6-33.9a42.7,42.7,0,0,0-2.7-6.7,60.8,60.8,0,0,0-3.3-6.2,82.3,82.3,0,0,0-8.3-10.9,110.7,110.7,0,0,0-9.2-9c-3.1-2.7-6.2-5-9-7.1l.6-1.8c8.7,6.4,20.4,16.1,28.1,29a401,401,0,0,1-12.8-63.1l.7-1.1h0l1.1.9a397.1,397.1,0,0,0,12.7,62.8c-.3-15,6.3-28.4,12.2-36.8l1.1,1.3a73.1,73.1,0,0,0-5.4,9.4,56.8,56.8,0,0,0-4.3,11.6,51.3,51.3,0,0,0-1.9,13.2,56.2,56.2,0,0,0,.5,7,44.1,44.1,0,0,0,1.6,7c3.7,11.4,7.8,22.7,12.5,33.8-2.1-12.6.1-24.9,3.7-34.9a85.4,85.4,0,0,1,12.1-22.6l.9,1.5a88.6,88.6,0,0,0-13.4,28.1c-3.3,12.4-3.8,27.5,2.7,41.4,2,4.4,4.2,8.7,6.3,13.1s4.4,8.6,6.8,12.7c-4.3-15.3-1.8-30.8,2.1-42.3a90.1,90.1,0,0,1,10.4-21.3l.6,2.1a96.4,96.4,0,0,0-5.6,10.3,82,82,0,0,0-6.1,17.8c-3.2,13.8-3.1,31.2,6.1,46.3,2.8,4.8,5.8,9.4,8.8,14.1l-.2,1.3-1.3-.3c-3-4.7-6.1-9.4-8.9-14.2-9-15-22.8-25.2-35.8-32.7a168.9,168.9,0,0,0-17.9-9.1c-5.2-2.3-9.5-3.9-11.8-4.7l-1.1-2.4a180.3,180.3,0,0,1,23.3,10c11.7,6,25.2,14.3,35.9,26-2.5-4.2-4.6-8.6-6.9-12.8s-4.3-8.7-6.3-13.1c-6.5-13.9-16.9-24.5-27.5-32.9A187.5,187.5,0,0,0,1526.5,806.3Z" transform="translate(0.5 60.1)" style="fill:#fff"/><path d="M1738.2,837a110.5,110.5,0,0,0-6.5,23.8c-.9,3.9-1.3,8.1-2,11.9-.3,2-.5,4-.8,5.9s-.5,3.8-.7,5.6c-.4,3.7-1,7.1-1.3,10.3q-.3,2.4-.6,4.5c-.2,1.4-.3,2.7-.5,3.9-.6,4.7-.9,7.7-.9,7.7a53.8,53.8,0,0,0,7.8-.8l4.1-.7,4.7-1.2a65.8,65.8,0,0,0,10.9-3.9,53.8,53.8,0,0,0,6-2.8c2.1-1.1,4.1-2.3,6.2-3.6a91.7,91.7,0,0,0,12.2-9.3,81.2,81.2,0,0,0,19.4-27.8,79.9,79.9,0,0,0,5.4-33.5,81.6,81.6,0,0,0-2.3-15.3c-.6-2.4-1.2-4.6-1.9-6.8s-1.6-4.3-2.4-6.2a63,63,0,0,0-5.2-10.4c-.8-1.5-1.7-2.9-2.5-4.1s-1.7-2.4-2.4-3.4a52.6,52.6,0,0,0-5.1-6s-1.9,2.3-4.7,6.2l-2.3,3.1-2.8,3.6c-1.9,2.6-3.9,5.4-6.2,8.4l-3.3,4.5-3.6,4.8c-2.2,3.2-4.7,6.5-6.9,9.9A108.3,108.3,0,0,0,1738.2,837Z" transform="translate(0.5 60.1)" style="fill:url(#d)"/><path d="M1747.6,819l.7-1.1a71.4,71.4,0,0,1,5,6.8,69.3,69.3,0,0,1,5,10.2c2.8,7.7,4.4,17.5,2,27.2a165.6,165.6,0,0,0,10.7-26.2,37.8,37.8,0,0,0,1.3-5.6,33.7,33.7,0,0,0,.2-5.5,34.8,34.8,0,0,0-1.9-10.3,40.9,40.9,0,0,0-4.1-8.7,46.5,46.5,0,0,0-4.9-6.7l.8-1.1c5.3,5.8,11.4,15.9,11.5,27.8a173,173,0,0,0,5.3-50.2l.6-.8h0l.8.8a171.6,171.6,0,0,1-5.3,50.5c5.7-10.3,14.4-18.8,20.8-24.8l.5,1.4c-1.9,1.9-4.3,4.1-6.6,6.5s-4.5,5-6.8,7.8a78.6,78.6,0,0,0-6.2,8.9,46.6,46.6,0,0,0-2.5,5,50.3,50.3,0,0,0-2.1,5.4,169.7,169.7,0,0,1-10.9,26.5,126.7,126.7,0,0,1,21.7-19.5c3.6-2.7,7.2-5.1,10.4-7.1s5.9-3.9,8.1-5.2v1.8a266.9,266.9,0,0,0-22.3,15.2,119,119,0,0,0-12.6,11.2,59.8,59.8,0,0,0-5.8,6.5,73.8,73.8,0,0,0-5,7.4c-2,3.3-4.1,6.5-6.2,9.7l-3.4,4.7a50.7,50.7,0,0,1-3.5,4.6c9.8-7.8,21.2-13.3,31-17.5,4.8-2.1,9.2-3.9,12.6-5.1l6.7-2.4-1.1,2c-1.8.7-5.4,1.8-9.7,3.5l-7,2.9-8,3.6c-11,5.2-22.8,11.7-32.1,22-2.9,3.3-6.1,6.4-9.2,9.5h-1.1v-1c3.1-3.1,6.3-6.1,9.2-9.5,1.1-1.2,2.2-2.6,3.2-3.9s1.7-2.9,2.5-4.4a34.3,34.3,0,0,0,1.9-4.4,38.1,38.1,0,0,0,1.3-4.5,41.4,41.4,0,0,0,.9-4.6,34,34,0,0,0,.3-4.5,47.1,47.1,0,0,0-.4-8.5,53.2,53.2,0,0,0-1.7-7.6c-.6-2.3-1.5-4.5-2.2-6.4a73.9,73.9,0,0,0-4.2-8l.5-1.5a41.1,41.1,0,0,1,3.2,5.4,57.2,57.2,0,0,1,4.3,11.2c2.5,9,3.2,21.4-2.1,32.8a49.4,49.4,0,0,0,3.5-4.5l3.3-4.7c2.1-3.2,4.2-6.3,6.2-9.6a38.1,38.1,0,0,0,5.2-16.4,45.2,45.2,0,0,0-1.4-15.7,47.5,47.5,0,0,0-5.1-12.7A60.3,60.3,0,0,0,1747.6,819Z" transform="translate(0.5 60.1)" style="fill:#fff"/><path d="M1235.4,838.7c3.3,9.6,8.2,18.3,13.6,26.5,2.6,4.1,5.5,8,8.3,11.8,1.4,1.8,2.8,3.7,4.2,5.4l4.1,5.2,7.8,9.3,6.4,7.3c3.6,4.1,6,6.4,6,6.4a84.8,84.8,0,0,0,5-7.3,74.5,74.5,0,0,0,5-8.8,125,125,0,0,0,5.1-11.9c.8-2.2,1.5-4.5,2.3-7s1.3-4.9,1.9-7.6a106.8,106.8,0,0,0,2.3-16.7,95.4,95.4,0,0,0-5-36.5,97.4,97.4,0,0,0-19.2-31.4,109.8,109.8,0,0,0-12.4-11.5c-2.1-1.6-4.2-3.2-6.3-4.6s-4.2-2.8-6.2-4a115,115,0,0,0-11.5-5.9,93.7,93.7,0,0,0-9.3-3.7c-5.4-1.8-8.6-2.5-8.6-2.5s-.3,3.3-.6,8.8c-.1,2.8-.2,6.1-.3,9.7s-.1,7.7-.1,12c0,2.2,0,4.4.1,6.7s0,4.6.1,6.9c.3,4.6.5,9.5,1.1,14.3A113.7,113.7,0,0,0,1235.4,838.7Z" transform="translate(0.5 60.1)" style="fill:url(#e)"/><path d="M1229.8,814.9l-.2-1.6a92.4,92.4,0,0,1,9.4,2.7,94.2,94.2,0,0,1,11.9,5.5c8.2,4.7,16.9,11.9,22.5,21.9a290.1,290.1,0,0,0-10.8-30.5,39.2,39.2,0,0,0-2.9-5.8c-1.2-1.7-2.5-3.4-3.8-5a43.8,43.8,0,0,0-9-7.8,51.7,51.7,0,0,0-9.8-5.2,69.9,69.9,0,0,0-9.2-3v-1.5c8.9,1.9,21.3,7,29.9,17.4a289.7,289.7,0,0,0-29-49.6,10.9,10.9,0,0,0,.1-1.2h0l1.2.3a292.5,292.5,0,0,1,29.2,49.8c-2.3-13.2-.3-26.7,1.6-36.3l1.5.9c-.5,3-1.2,6.5-1.7,10.1s-.7,7.6-.9,11.6a84.8,84.8,0,0,0,.9,12.3,42.6,42.6,0,0,0,1.3,6.2,50.3,50.3,0,0,0,2.1,6.2,277.8,277.8,0,0,1,10.8,30.6,113.7,113.7,0,0,1,3.7-32.5c1.2-4.9,2.6-9.5,3.9-13.6s2.5-7.4,3.6-10l1.2,1.5a194.7,194.7,0,0,0-8.6,28.9c-2.4,12-3.5,25.2-.3,38.6,1.1,4.2,1.9,8.5,2.9,12.8s1.6,8.5,2.2,12.8c1.2-14.1,6-27.6,10.7-38.4a168.6,168.6,0,0,1,10.5-20.5l.5,2.4c-1,1.8-3.1,5.4-5.4,10s-5,10.3-7.4,16.6c-4.8,12.8-8.8,27.5-7.1,43.2.6,5,.9,10,1.2,15l-.7.9-.9-.8c-.3-5-.6-10-1.2-14.9-1.7-15.8-11.4-28.1-21.2-35.9a76.4,76.4,0,0,0-24-12.6l-.8-1.8a75.1,75.1,0,0,1,19.2,8.6c9.3,5.8,19.7,15.3,25,28.5-.5-4.3-1.5-8.6-2.2-12.8s-1.8-8.5-2.8-12.7c-3.3-13.4-12.3-23.6-21.7-30.1A73.8,73.8,0,0,0,1229.8,814.9Z" transform="translate(0.5 60.1)" style="fill:#fff"/><path d="M1294.3,852.3a102.7,102.7,0,0,0,12.2,21.1c2.2,3.3,4.8,6.4,7.1,9.5l3.7,4.4a48.7,48.7,0,0,0,3.5,4.2l6.5,7.6,2.9,3.3,2.4,2.8c3.1,3.4,5.1,5.4,5.1,5.4a67.5,67.5,0,0,0,4.2-6.1c.7-1,1.3-2.1,2.1-3.4l2-4a73.1,73.1,0,0,0,4.2-10.1c.7-1.9,1.3-3.9,1.9-6s1-4.2,1.4-6.5a78.4,78.4,0,0,0-4.1-45.2,78.1,78.1,0,0,0-18-25.8,84.1,84.1,0,0,0-11.3-9l-5.6-3.5-5.5-2.9c-3.6-1.7-7.1-3-10.1-4.1s-3-1-4.4-1.3l-3.8-1c-4.6-1-7.4-1.3-7.4-1.3s.1,2.9.4,7.4c0,1.2.1,2.4.2,3.8s.2,2.8.3,4.3c.3,3.1.5,6.5.8,10,.2,1.8.3,3.6.6,5.4s.3,3.8.6,5.8c.5,3.8.9,7.8,1.7,11.7A103.8,103.8,0,0,0,1294.3,852.3Z" transform="translate(0.5 60.1)" style="fill:url(#f)"/><path d="M1288.6,833.1l-.2-1.3a79.9,79.9,0,0,1,8,1.6,73,73,0,0,1,10.2,3.8c7,3.5,14.7,9.1,19.7,17.3a202.6,202.6,0,0,0-10.4-25,35.9,35.9,0,0,0-2.7-4.7,44,44,0,0,0-3.5-3.9,34.9,34.9,0,0,0-8-6,38.7,38.7,0,0,0-8.5-3.6,43.2,43.2,0,0,0-7.8-1.8l-.2-1.3c7.6.9,18.3,4.2,26.1,12.4a211.4,211.4,0,0,0-27.9-39.2,6.7,6.7,0,0,1-.1-1h1a202.9,202.9,0,0,1,28.2,39.5c-2.7-11-2-22.5-1.2-30.7l1.4.7c-.3,2.6-.6,5.5-.7,8.7s-.1,6.4.1,9.8a59.8,59.8,0,0,0,1.5,10.2,49.1,49.1,0,0,0,1.5,5.1,36.6,36.6,0,0,0,2.1,5.1,184.9,184.9,0,0,1,10.3,25.2,108.2,108.2,0,0,1,1.7-27.6c.7-4.2,1.6-8.1,2.5-11.6s1.6-6.4,2.3-8.7l1.2,1.2a174.1,174.1,0,0,0-5.6,24.9c-1.4,10.2-1.8,21.3,1.3,32.5,1,3.5,1.8,7,2.7,10.6s1.6,7.1,2.1,10.7c.7-11.8,4.4-23.3,8.1-32.6a163.5,163.5,0,0,1,7.9-17.8l.6,2c-.8,1.7-2.5,4.8-4.2,8.8s-3.8,8.9-5.6,14.3c-3.7,10.9-6.7,23.4-5.3,36.5.6,4.1.8,8.3,1.1,12.5l-.6.8-.7-.7c-.3-4.2-.5-8.3-1.1-12.5-1.5-13.2-9.8-23.4-18.3-29.5a58.7,58.7,0,0,0-12.2-6.8,57.1,57.1,0,0,0-8.2-2.7l-.8-1.4a57.2,57.2,0,0,1,16.4,6.3c7.9,4.4,16.9,12.1,21.6,23.1-.6-3.6-1.4-7.2-2.1-10.7s-1.7-7.1-2.7-10.6c-3.1-11.1-11-19.3-19.2-24.3A58.4,58.4,0,0,0,1288.6,833.1Z" transform="translate(0.5 60.1)" style="fill:#fff"/><path d="M1710.4,454.3l1.5-.5" transform="translate(0.5 60.1)" style="fill:none;stroke:#1d325f;stroke-miterlimit:10"/><path d="M1714.8,453c77.2-21.6,140.9,53,112.8,115.3-29.8,65.8-107,7.8-75.1-10.3,16-9.1,46.5,9,56.9,36.7,13.3,35.1,18.8,62,11,102.4-15.8,81.5-93.5,129.9-164.2,81.3-36.5-25-72.6-66.7-128.4-68.2" transform="translate(0.5 60.1)" style="fill:none;stroke:#1d325f;stroke-miterlimit:10;stroke-dasharray:2.99519419670105,2.99519419670105"/><path d="M1526.3,710.2h-1.5" transform="translate(0.5 60.1)" style="fill:none;stroke:#1d325f;stroke-miterlimit:10"/><path d="M1668.6,462.5a6.9,6.9,0,0,1-3.2,7.5l-6,3.4a7,7,0,0,0-2.5,9.4l6.3,10.9a6.9,6.9,0,0,0,9.4,2.5l6-3.5a6.7,6.7,0,0,1,8,1,61.7,61.7,0,0,0,22.9,13.2,6.8,6.8,0,0,1,4.9,6.5v6.9a6.8,6.8,0,0,0,6.8,6.9h12.6a6.9,6.9,0,0,0,6.9-6.9v-6.9a6.7,6.7,0,0,1,4.8-6.5,61.7,61.7,0,0,0,22.9-13.2,6.7,6.7,0,0,1,8-1l6,3.5a6.9,6.9,0,0,0,9.4-2.5l6.3-10.9a6.9,6.9,0,0,0-2.5-9.4l-6-3.4a6.9,6.9,0,0,1-3.2-7.5,62.9,62.9,0,0,0,0-26.4,6.9,6.9,0,0,1,3.2-7.5l6-3.4a6.9,6.9,0,0,0,2.5-9.4l-6.3-10.9a6.9,6.9,0,0,0-9.4-2.5l-6,3.5a6.7,6.7,0,0,1-8-1,61.7,61.7,0,0,0-22.9-13.2,6.7,6.7,0,0,1-4.8-6.5v-6.9a6.9,6.9,0,0,0-6.9-6.9h-12.6a6.8,6.8,0,0,0-6.8,6.9v6.9a6.8,6.8,0,0,1-4.9,6.5,61.7,61.7,0,0,0-22.9,13.2,6.7,6.7,0,0,1-8,1l-6-3.5a6.9,6.9,0,0,0-9.4,2.5l-6.3,10.9a7,7,0,0,0,2.5,9.4l6,3.4a6.9,6.9,0,0,1,3.2,7.5,62.9,62.9,0,0,0,0,26.4Zm28-13.2a30.9,30.9,0,1,1,30.9,30.9A31,31,0,0,1,1696.6,449.3Z" transform="translate(0.5 60.1)" style="fill:#fff"/><path d="M1578.7,487.9a5.1,5.1,0,0,1-2.4,5.7l-4.7,2.7a5.3,5.3,0,0,0-1.9,7.2l4.9,8.5a5.2,5.2,0,0,0,7.2,1.9l4.6-2.7a5.5,5.5,0,0,1,6.3.8,46.7,46.7,0,0,0,17.7,10.2,5.3,5.3,0,0,1,3.7,5v5.4a5.3,5.3,0,0,0,5.3,5.3h9.7a5.3,5.3,0,0,0,5.3-5.3v-5.4a5.3,5.3,0,0,1,3.8-5,48.3,48.3,0,0,0,17.7-10.2,5.3,5.3,0,0,1,6.2-.8l4.6,2.7a5.2,5.2,0,0,0,7.2-1.9l4.9-8.5a5.3,5.3,0,0,0-1.9-7.2l-4.6-2.7a5.2,5.2,0,0,1-2.5-5.7,49,49,0,0,0,1.1-10.2,48.3,48.3,0,0,0-1.1-10.2,5.4,5.4,0,0,1,2.5-5.8l4.6-2.7a5.2,5.2,0,0,0,1.9-7.2l-4.9-8.5a5.3,5.3,0,0,0-7.2-1.9l-4.6,2.7a5.3,5.3,0,0,1-6.2-.7,48.5,48.5,0,0,0-17.7-10.3,5.2,5.2,0,0,1-3.8-5v-5.3a5.2,5.2,0,0,0-5.3-5.3h-9.7a5.3,5.3,0,0,0-5.3,5.3v5.3a5.2,5.2,0,0,1-3.7,5,46.9,46.9,0,0,0-17.7,10.3,5.4,5.4,0,0,1-6.3.7l-4.6-2.7a5.3,5.3,0,0,0-7.2,1.9l-4.9,8.5a5.2,5.2,0,0,0,1.9,7.2l4.7,2.7a5.3,5.3,0,0,1,2.4,5.8,48.3,48.3,0,0,0-1.1,10.2A49,49,0,0,0,1578.7,487.9Zm21.7-10.2a23.9,23.9,0,1,1,23.9,23.8A23.9,23.9,0,0,1,1600.4,477.7Z" transform="translate(0.5 60.1)" style="fill:url(#g)"/><path d="M1683.5,466.9l-1.3.7" transform="translate(0.5 60.1)" style="fill:none;stroke:#1d325f;stroke-miterlimit:10"/><path d="M1679.5,469c-19.8,9.9-59.5,19.1-79.1,2.4s-21.3-57.1-4.8-79.2c6.2-8.4,18.7-15,26.6-8.2s4.3,17.8-2.2,24.1c-12.4,12.1-33.7,10.1-48.2.7-47-30.7-86-66.4-138.2-78-64.1-14.2-117.1,17.7-97.6,63.3,8.8,20.5,18,41.4,20.6,63.6s-6.7,48.2-28,55c-13.5,4.2-28.1-.3-41.9-3.6s-29.6-5.2-41,3.2-15.6,26.8-8.9,39.8c16.5,31.6,100.3,39.7,104.1,81" transform="translate(0.5 60.1)" style="fill:none;stroke:#1d325f;stroke-miterlimit:10;stroke-dasharray:3.001737356185913,3.001737356185913"/><path d="M1341,634.6a7.6,7.6,0,0,1,.1,1.5" transform="translate(0.5 60.1)" style="fill:none;stroke:#1d325f;stroke-miterlimit:10"/><rect x="1290.8" y="375.8" width="131.7" height="177.52" rx="5.1" transform="translate(2713.7 989.3) rotate(-180)" style="fill:#fff"/><path d="M1410.8,375.8H1302.4a11.6,11.6,0,0,0-11.6,11.7V541.6a11.6,11.6,0,0,0,11.6,11.7" transform="translate(0.5 60.1)" style="fill:none;stroke:#00030e;stroke-linecap:round;stroke-miterlimit:10;stroke-width:0.25px"/><rect x="1324.7" y="423.5" width="77" height="6.31" transform="translate(2726.8 913.3) rotate(-180)" style="fill:#cfdeff"/><rect x="1324.7" y="447.8" width="77" height="6.31" transform="translate(2726.8 962) rotate(-180)" style="fill:#cfdeff"/><rect x="1324.7" y="472.1" width="77" height="6.31" transform="translate(2726.8 1010.6) rotate(-180)" style="fill:#cfdeff"/><rect x="1324.7" y="496.4" width="77" height="6.31" transform="translate(2726.8 1059.2) rotate(-180)" style="fill:#cfdeff"/><rect x="1324.7" y="520.7" width="77" height="6.31" transform="translate(2726.8 1107.8) rotate(-180)" style="fill:#cfdeff"/><path d="M1335.8,402.2h-2.6V392.1h-3.3V390h9.2v2.1h-3.3Z" transform="translate(0.5 60.1)" style="fill:#42445d"/><path d="M1352,396.1a6.5,6.5,0,0,1-1.5,4.6,5.4,5.4,0,0,1-4.3,1.6,5.6,5.6,0,0,1-4.3-1.6,6.6,6.6,0,0,1-1.5-4.7,6.5,6.5,0,0,1,1.5-4.6,5.6,5.6,0,0,1,4.3-1.6,5.4,5.4,0,0,1,4.3,1.6A6.6,6.6,0,0,1,1352,396.1Zm-8.9,0a5.1,5.1,0,0,0,.8,3,2.7,2.7,0,0,0,2.3,1.1c2.1,0,3.1-1.4,3.1-4.1s-1-4.2-3.1-4.2a2.7,2.7,0,0,0-2.3,1.1A5.2,5.2,0,0,0,1343.1,396.1Z" transform="translate(0.5 60.1)" style="fill:#42445d"/><path d="M1369.1,396a5.8,5.8,0,0,1-1.7,4.6,7.2,7.2,0,0,1-4.9,1.6H1359V390h3.8a6.8,6.8,0,0,1,4.7,1.5A6.1,6.1,0,0,1,1369.1,396Zm-2.7,0c0-2.6-1.1-3.9-3.4-3.9h-1.4V400h1.1C1365.2,400,1366.4,398.7,1366.4,396Z" transform="translate(0.5 60.1)" style="fill:#42445d"/><path d="M1382.7,396.1a6.5,6.5,0,0,1-1.5,4.6,5.4,5.4,0,0,1-4.3,1.6,5.6,5.6,0,0,1-4.3-1.6,6.6,6.6,0,0,1-1.5-4.7,6.5,6.5,0,0,1,1.5-4.6,5.6,5.6,0,0,1,4.3-1.6,5.4,5.4,0,0,1,4.3,1.6A6.6,6.6,0,0,1,1382.7,396.1Zm-8.9,0a5.1,5.1,0,0,0,.8,3,2.7,2.7,0,0,0,2.3,1.1c2.1,0,3.1-1.4,3.1-4.1s-1-4.2-3.1-4.2a2.7,2.7,0,0,0-2.3,1.1A5.2,5.2,0,0,0,1373.8,396.1Z" transform="translate(0.5 60.1)" style="fill:#42445d"/><rect x="1304.3" y="420.5" width="12.2" height="12.2" rx="1" transform="translate(2621.4 913.3) rotate(-180)" style="fill:none;stroke:#00030e;stroke-linecap:round;stroke-miterlimit:10;stroke-width:0.25px"/><rect x="1304.3" y="444.8" width="12.2" height="12.2" rx="1" transform="translate(2621.4 962) rotate(-180)" style="fill:none;stroke:#00030e;stroke-linecap:round;stroke-miterlimit:10;stroke-width:0.25px"/><rect x="1304.3" y="469.1" width="12.2" height="12.2" rx="1" transform="translate(2621.4 1010.6) rotate(-180)" style="fill:none;stroke:#00030e;stroke-linecap:round;stroke-miterlimit:10;stroke-width:0.25px"/><rect x="1304.3" y="493.4" width="12.2" height="12.2" rx="1" transform="translate(2621.4 1059.2) rotate(-180)" style="fill:none;stroke:#00030e;stroke-linecap:round;stroke-miterlimit:10;stroke-width:0.25px"/><rect x="1304.3" y="517.7" width="12.2" height="12.2" rx="1" transform="translate(2621.4 1107.8) rotate(-180)" style="fill:none;stroke:#00030e;stroke-linecap:round;stroke-miterlimit:10;stroke-width:0.25px"/><polygon points="1314.8 490.6 1314.8 482.9 1307 482.9 1307.1 490.6 1314.8 490.6" style="fill:url(#h)"/><polygon points="1314.8 514.9 1314.8 507.2 1307 507.2 1307.1 514.9 1314.8 514.9" style="fill:url(#i)"/><polygon points="1314.8 539.2 1314.8 531.5 1307 531.5 1307.1 539.2 1314.8 539.2" style="fill:url(#j)"/><rect x="1253.6" y="641.5" width="260.7" height="207.44" rx="13.6" transform="translate(2768.5 1550.5) rotate(-180)" style="fill:#fff"/><path d="M1253.6,672.6V817.8a31.1,31.1,0,0,0,31.1,31.1h198.6a31.1,31.1,0,0,0,31.1-31.1" transform="translate(0.5 60.1)" style="fill:none;stroke:#00030e;stroke-miterlimit:10;stroke-width:0.25px"/><path d="M1514.4,672.6a31.1,31.1,0,0,0-31.1-31.1H1284.7a31.1,31.1,0,0,0-31.1,31.1Z" transform="translate(0.5 60.1)" style="fill:url(#k)"/><rect x="1444.7" y="695.7" width="32.5" height="22.75" rx="1.7" transform="translate(2922.5 1474.3) rotate(-180)" style="fill:#cfdeff"/><rect x="1406.2" y="695.7" width="32.5" height="22.75" rx="1.7" transform="translate(2845.5 1474.3) rotate(-180)" style="fill:#cfdeff"/><rect x="1367.7" y="695.7" width="32.5" height="22.75" rx="1.7" transform="translate(2768.5 1474.3) rotate(-180)" style="fill:#cfdeff"/><rect x="1329.2" y="695.7" width="32.5" height="22.75" rx="1.7" transform="translate(2691.5 1474.3) rotate(-180)" style="fill:#cfdeff"/><rect x="1290.8" y="695.7" width="32.5" height="22.75" rx="1.7" transform="translate(2614.5 1474.3) rotate(-180)" style="fill:#cfdeff"/><rect x="1444.7" y="727.6" width="32.5" height="22.75" rx="1.7" transform="translate(2922.5 1538) rotate(-180)" style="fill:#cfdeff"/><rect x="1406.2" y="727.6" width="32.5" height="22.75" rx="1.7" transform="translate(2845.5 1538) rotate(-180)" style="fill:url(#l)"/><rect x="1367.7" y="727.6" width="32.5" height="22.75" rx="1.7" transform="translate(2768.5 1538) rotate(-180)" style="fill:#cfdeff"/><rect x="1329.2" y="727.6" width="32.5" height="22.75" rx="1.7" transform="translate(2691.5 1538) rotate(-180)" style="fill:#cfdeff"/><rect x="1290.8" y="727.6" width="32.5" height="22.75" rx="1.7" transform="translate(2614.5 1538) rotate(-180)" style="fill:#cfdeff"/><rect x="1444.7" y="759.4" width="32.5" height="22.75" rx="1.7" transform="translate(2922.5 1601.7) rotate(-180)" style="fill:#cfdeff"/><rect x="1406.2" y="759.4" width="32.5" height="22.75" rx="1.7" transform="translate(2845.5 1601.7) rotate(-180)" style="fill:#cfdeff"/><rect x="1367.7" y="759.4" width="32.5" height="22.75" rx="1.7" transform="translate(2768.5 1601.7) rotate(-180)" style="fill:#cfdeff"/><rect x="1329.2" y="759.4" width="32.5" height="22.75" rx="1.7" transform="translate(2691.5 1601.7) rotate(-180)" style="fill:url(#m)"/><rect x="1290.8" y="759.4" width="32.5" height="22.75" rx="1.7" transform="translate(2614.5 1601.7) rotate(-180)" style="fill:#cfdeff"/><rect x="1444.7" y="791.3" width="32.5" height="22.75" rx="1.7" transform="translate(2922.5 1665.4) rotate(-180)" style="fill:#cfdeff"/><rect x="1406.2" y="791.3" width="32.5" height="22.75" rx="1.7" transform="translate(2845.5 1665.4) rotate(-180)" style="fill:#cfdeff"/><rect x="1367.7" y="791.3" width="32.5" height="22.75" rx="1.7" transform="translate(2768.5 1665.4) rotate(-180)" style="fill:#cfdeff"/><rect x="1329.2" y="791.3" width="32.5" height="22.75" rx="1.7" transform="translate(2691.5 1665.4) rotate(-180)" style="fill:#cfdeff"/><rect x="1290.8" y="791.3" width="32.5" height="22.75" rx="1.7" transform="translate(2614.5 1665.4) rotate(-180)" style="fill:#cfdeff"/><path d="M1317.4,661.5h0a7.8,7.8,0,0,0,7.8-7.7V629.2a7.8,7.8,0,0,0-7.8-7.8h0a7.8,7.8,0,0,0-7.7,7.8v24.6A7.8,7.8,0,0,0,1317.4,661.5Z" transform="translate(0.5 60.1)" style="fill:#cfdeff"/><path d="M1309.7,629.2v24.6a7.8,7.8,0,0,0,7.7,7.7h0a7.8,7.8,0,0,0,7.8-7.7" transform="translate(0.5 60.1)" style="fill:none;stroke:#00030e;stroke-linecap:round;stroke-miterlimit:10;stroke-width:0.25px"/><path d="M1377.2,717.4h0l13.6-13.6a5,5,0,0,0,0-7.1h0l-13.6,13.7A4.8,4.8,0,0,0,1377.2,717.4Z" transform="translate(0.5 60.1)" style="fill:#42445d"/><path d="M1394.3,713.9h0l-13.6-13.6a4.8,4.8,0,0,0-7,0h0l13.6,13.6A5,5,0,0,0,1394.3,713.9Z" transform="translate(0.5 60.1)" style="fill:#42445d"/><path d="M1454.2,781.1h0l13.6-13.6a5.1,5.1,0,0,0,0-7.1h0l-13.6,13.7A4.8,4.8,0,0,0,1454.2,781.1Z" transform="translate(0.5 60.1)" style="fill:#42445d"/><path d="M1471.3,777.6h0L1457.7,764a5,5,0,0,0-7.1,0h0l13.7,13.6A5,5,0,0,0,1471.3,777.6Z" transform="translate(0.5 60.1)" style="fill:#42445d"/><path d="M1300.2,813h0l13.6-13.6a5,5,0,0,0,0-7.1h0l-13.6,13.6A5.1,5.1,0,0,0,1300.2,813Z" transform="translate(0.5 60.1)" style="fill:#42445d"/><path d="M1317.4,809.4h0l-13.7-13.6a5,5,0,0,0-7,0h0l13.6,13.6A5,5,0,0,0,1317.4,809.4Z" transform="translate(0.5 60.1)" style="fill:#42445d"/><circle cx="1497.2" cy="551" r="145.8" transform="translate(49.4 1280.2) rotate(-45)" style="fill:url(#n)"/><circle cx="1497.2" cy="551" r="115.1" transform="translate(49.4 1280.2) rotate(-45)" style="fill:#fff"/><rect x="1490.8" y="443.5" width="12.7" height="18.23" rx="1" transform="translate(2994.9 965.4) rotate(-180)" style="fill:#cfdeff"/><rect x="1540" y="456.7" width="12.7" height="18.23" rx="1" transform="translate(2653.2 1702.5) rotate(-150)" style="fill:#cfdeff"/><rect x="1576" y="492.7" width="12.7" height="18.23" rx="1" transform="translate(1939.5 2183.2) rotate(-120)" style="fill:#cfdeff"/><rect x="1589.2" y="541.9" width="12.7" height="18.23" rx="1" transform="translate(1045.1 2206.6) rotate(-90)" style="fill:#cfdeff"/><rect x="1576" y="591" width="12.7" height="18.23" rx="1" transform="translate(271.9 1730.6) rotate(-60)" style="fill:#cfdeff"/><rect x="1540" y="627" width="12.7" height="18.23" rx="1" transform="translate(-110.4 918.5) rotate(-30)" style="fill:#cfdeff"/><rect x="1491.3" y="700.3" width="12.7" height="18.23" rx="1" style="fill:#cfdeff"/><rect x="1441.7" y="627" width="12.7" height="18.23" rx="1" transform="translate(512.6 -578.7) rotate(30)" style="fill:#cfdeff"/><rect x="1405.7" y="591" width="12.7" height="18.23" rx="1" transform="translate(1226.3 -862.7) rotate(60)" style="fill:#cfdeff"/><rect x="1392.5" y="541.9" width="12.7" height="18.23" rx="1" transform="translate(1950.4 -787.8) rotate(90)" style="fill:#cfdeff"/><rect x="1405.7" y="492.7" width="12.7" height="18.23" rx="1" transform="translate(2553.2 -410) rotate(120)" style="fill:#cfdeff"/><rect x="1441.7" y="456.7" width="12.7" height="18.23" rx="1" transform="translate(2935.5 205.4) rotate(150)" style="fill:#cfdeff"/><path d="M1497.2,435.8a115.2,115.2,0,0,0,0,230.3" transform="translate(0.5 60.1)" style="fill:none;stroke:#00030e;stroke-miterlimit:10;stroke-width:0.25px"/><path d="M1497.2,405.2a145.8,145.8,0,1,0,0,291.5" transform="translate(0.5 60.1)" style="fill:none;stroke:#00030e;stroke-miterlimit:10;stroke-width:0.25px"/><g style="opacity:0.4"><path d="M1397.9,603.4V581.5l13.4,12.9,1.1,1.1,1.2,1.4V582.3h3.1v21.9l-13.6-13.1a5.7,5.7,0,0,1-1.1-1.1l-1-1.2v14.6Z" transform="translate(0.5 60.1)" style="fill:#333332"/><path d="M1421,583.9a1.8,1.8,0,0,1,.6-1.4,2,2,0,0,1,1.4-.6,1.9,1.9,0,0,1,1.9,1.8v.2a1.7,1.7,0,0,1-1.9,1.9,2,2,0,0,1-1.4-.6A1.6,1.6,0,0,1,1421,583.9Zm.4,19.5V589.8h3.2v13.6Z" transform="translate(0.5 60.1)" style="fill:#333332"/><path d="M1429.7,603.4V592.5h-2.3v-2.7h2.3v-5.2h3.2v5.2h2.4v2.7h-2.4v10.9Z" transform="translate(0.5 60.1)" style="fill:#333332"/><path d="M1441.1,591.9a4.1,4.1,0,0,1,1.3-2,3.7,3.7,0,0,1,2.1-.6h1.3l1.2.5-1.1,2.7-.9-.5h-1a2.5,2.5,0,0,0-2.3,1.2,11,11,0,0,0-.6,4.2v6H1438V589.7h3.1Z" transform="translate(0.5 60.1)" style="fill:#333332"/><path d="M1447.8,596.6a8.7,8.7,0,0,1,.5-2.8,8.1,8.1,0,0,1,1.7-2.4,7.8,7.8,0,0,1,2.4-1.6,8.3,8.3,0,0,1,5.8,0,7.8,7.8,0,0,1,2.4,1.6,6.3,6.3,0,0,1,1.6,2.4,6.8,6.8,0,0,1,0,5.6,6.3,6.3,0,0,1-1.6,2.4,7.2,7.2,0,0,1-2.5,1.6,8,8,0,0,1-5.7,0,7.8,7.8,0,0,1-2.4-1.6,8.1,8.1,0,0,1-1.7-2.4A8.7,8.7,0,0,1,1447.8,596.6Zm11.7,0a4.7,4.7,0,0,0-1.2-3.2,4.3,4.3,0,0,0-3-1.3,4.2,4.2,0,0,0-3,1.3,4.9,4.9,0,0,0,0,6.4,4,4,0,0,0,5.7.3l.3-.3a4.5,4.5,0,0,0,1.2-3.2Z" transform="translate(0.5 60.1)" style="fill:#333332"/><path d="M1482.1,585.2v18.2h-3.5V585.2H1473v-2.9h14.6v2.9Z" transform="translate(0.5 60.1)" style="fill:#333332"/><path d="M1500.2,597h-11a4.6,4.6,0,0,0,1.2,3,3.9,3.9,0,0,0,2.7,1.1,5.1,5.1,0,0,0,2.5-.6,5.4,5.4,0,0,0,1.8-2.1l2.6,1.5a7,7,0,0,1-2.9,3,7.1,7.1,0,0,1-3.9,1.1,7.2,7.2,0,0,1-5.3-2,8.1,8.1,0,0,1-1.9-5.4,6.9,6.9,0,0,1,7.2-7.3,6.7,6.7,0,0,1,5.1,1.9,7.2,7.2,0,0,1,1.9,5.2Zm-3.3-2.1a3.9,3.9,0,0,0-1.1-2.2,4,4,0,0,0-2.6-.8,3.6,3.6,0,0,0-2.4.8,3.8,3.8,0,0,0-1.4,2.2Z" transform="translate(0.5 60.1)" style="fill:#333332"/><path d="M1513.6,593.7a5.2,5.2,0,0,0-1.7-1.3,6.5,6.5,0,0,0-2.1-.4,3.7,3.7,0,0,0-3,1.3,4.4,4.4,0,0,0-1.2,3.2,4.7,4.7,0,0,0,1.2,3.4,4.2,4.2,0,0,0,3.2,1.2,4.5,4.5,0,0,0,2-.4,5.1,5.1,0,0,0,1.6-1.3V603l-1.9.7a7.6,7.6,0,0,1-2.1.3,7,7,0,0,1-5.2-2.1,7.4,7.4,0,0,1-2-5.3,6.9,6.9,0,0,1,2.1-5.3,7.7,7.7,0,0,1,5.5-2,6.2,6.2,0,0,1,1.9.2,4.9,4.9,0,0,1,1.7.6Z" transform="translate(0.5 60.1)" style="fill:#333332"/><path d="M1516.8,603.4V581.1h2.9V592a5.6,5.6,0,0,1,2.2-2.1,6.6,6.6,0,0,1,3.1-.6,5.8,5.8,0,0,1,2.6.5,3.9,3.9,0,0,1,1.7,1.4,5,5,0,0,1,.5,1.3,11.3,11.3,0,0,1,.1,2.6v8.3h-3.1v-7c0-1.8-.2-3-.7-3.6a2.6,2.6,0,0,0-2.3-.9,5.8,5.8,0,0,0-1.9.4,3.3,3.3,0,0,0-1.4,1.2,4.3,4.3,0,0,0-.5,1.2,20.9,20.9,0,0,0-.1,2.5v6.2Z" transform="translate(0.5 60.1)" style="fill:#333332"/><path d="M1557.1,603.4l-2.3-5.4h-8.4l-2.4,5.4h-3.6l10.2-21.9,10.2,21.9Zm-9.4-8.3h5.9l-2.2-4.8a10.4,10.4,0,0,1-.4-1l-.4-1.4a5,5,0,0,1-.4,1.3,3.6,3.6,0,0,1-.4,1.1Z" transform="translate(0.5 60.1)" style="fill:#333332"/><path d="M1560.9,600.9l2.6-1.4a2.9,2.9,0,0,0,1.1,1.6,4.6,4.6,0,0,0,2,.5,2.5,2.5,0,0,0,1.6-.5,1.6,1.6,0,0,0,.6-1.3c0-.7-.7-1.4-2.1-1.9l-1.1-.4a9.2,9.2,0,0,1-3.1-1.9,3.2,3.2,0,0,1-.9-2.3,3.8,3.8,0,0,1,1.5-2.9,5.6,5.6,0,0,1,3.8-1.1,5.2,5.2,0,0,1,2.7.5,3.7,3.7,0,0,1,1.6,1.7L1569,593a2.7,2.7,0,0,0-.8-1,2.8,2.8,0,0,0-1.5-.4,2.3,2.3,0,0,0-1.4.4,1.3,1.3,0,0,0-.5,1.2c0,.7.8,1.3,2.4,1.9l1.2.5a6,6,0,0,1,2.7,1.7,3.6,3.6,0,0,1,.8,2.3,3.8,3.8,0,0,1-1.5,3.2,6.3,6.3,0,0,1-4.1,1.2,6.7,6.7,0,0,1-3.3-.8A5.2,5.2,0,0,1,1560.9,600.9Z" transform="translate(0.5 60.1)" style="fill:#333332"/><path d="M1574.8,583.9a2.2,2.2,0,0,1,.5-1.4,2,2,0,0,1,3.4,1.2v.2a2,2,0,0,1-.6,1.4,2.4,2.4,0,0,1-1.4.5,2,2,0,0,1-1.4-.6A1.3,1.3,0,0,1,1574.8,583.9Zm.4,19.5V589.8h3.1v13.6Z" transform="translate(0.5 60.1)" style="fill:#333332"/><path d="M1595.6,603.4h-3.1v-1.8a4.9,4.9,0,0,1-2,1.8,6,6,0,0,1-7.1-1.4,8.1,8.1,0,0,1-1.7-5.4,7.7,7.7,0,0,1,1.7-5.3,6,6,0,0,1,7.3-1.3,3.9,3.9,0,0,1,1.8,2v-2.2h3.1Zm-3.1-6.9a5.4,5.4,0,0,0-.9-3.3,3.4,3.4,0,0,0-2.8-1.1,3.5,3.5,0,0,0-2.8,1.2,4.8,4.8,0,0,0-1,3.3,4.9,4.9,0,0,0,1,3.4,3.3,3.3,0,0,0,2.7,1.2,3.7,3.7,0,0,0,2.8-1.3A5.1,5.1,0,0,0,1592.5,596.5Z" transform="translate(0.5 60.1)" style="fill:#333332"/><path d="M1566.7,512.4l-21.9.5,10,20.2h-20.6l-9.2,19.5h39.4l9.6,19.6,21.6-.3Z" transform="translate(0.5 60.1)" style="fill:#f86305"/><polygon points="1486.5 632.3 1508.5 632.3 1540.3 567 1564.1 566.9 1554.4 546.9 1499.5 546.8 1489.8 567 1518.6 567 1486.5 632.3" style="fill:#333332"/><polygon points="1508.5 572.5 1487 572.5 1467.8 611 1453.6 581.8 1442.8 603.3 1457 632.2 1478.9 632.3 1508.5 572.5" style="fill:#f86305"/><polygon points="1467.6 595.8 1478.6 573.3 1465.3 546.8 1440.8 546.8 1398.4 632.3 1421.1 632.3 1453.4 566.9 1467.6 595.8" style="fill:#333332"/></g><path d="M1495.8,459.2c-3.8,18-13.1,76.8-.2,106.8a1.7,1.7,0,0,0,3.2,0c12.9-30,3.6-88.8-.2-106.8A1.4,1.4,0,0,0,1495.8,459.2Z" transform="translate(0.5 60.1)" style="fill:#42445d"/><path d="M1568.1,549.9c-13.9-3-63.6-10.1-86.8-.1a1.3,1.3,0,0,0,0,2.4c23.2,10,72.9,2.8,86.8-.1A1.1,1.1,0,0,0,1568.1,549.9Z" transform="translate(0.5 60.1)" style="fill:#42445d"/><polygon points="1705.5 608.9 1696.2 582.6 1668.3 582.6 1674.6 605 1705.5 608.9" style="fill:#f4b7bc;stroke:#f4b7bc;stroke-linecap:round;stroke-linejoin:round;stroke-width:0.25px"/><polygon points="1673.6 593.8 1674.6 605 1671.6 594.3 1673.6 593.8" style="fill:#00030e;stroke:#00030e;stroke-miterlimit:10;stroke-width:0.25px"/><circle cx="1686" cy="507.5" r="21.4" transform="translate(-71 461.1) rotate(-13.3)" style="fill:#f4b7bc;stroke:#f4b7bc;stroke-linecap:round;stroke-linejoin:round;stroke-width:0.25px"/><path d="M1666.8,498.1c-5,10-5.8,26.2-.7,33.2s11.9-.5,13.4-4.3c0,0,4.6-4.2,3.9-7.6s-5.9-3.3-6.6,1" transform="translate(0.5 60.1)" style="fill:#f4b7bc;stroke:#f4b7bc;stroke-linecap:round;stroke-linejoin:round;stroke-width:0.25px"/><path d="M1681.1,525.2c-2.1,2-4.6.3-4.2-2.4" transform="translate(0.5 60.1)" style="fill:none;stroke:#00030e;stroke-linecap:round;stroke-linejoin:round;stroke-width:0.25px"/><path d="M1679,517.2c-2.2,1.1-3.2,4.5-6,4s-2.7-2.9-2.3-4.6.9-4.3,0-5.5-4.2-3.5-2.2-6.4-2.2-5.7-2.8-9.2c-1.1-6.4,6.9-17.1,21.8-14.2,18.3,3.6,17.5,16.3,17.5,16.3s3.6,1.5,5.5,7.2-.1,10.6-6.3,16.6-4.7,7.8-3.5,9.3.5,3.2-4.2,3.5-14.9,0-15.4-9a12.6,12.6,0,0,0,2.3-4.3C1684.1,518.3,1681.5,515.8,1679,517.2Z" transform="translate(0.5 60.1)" style="stroke:#00030e;stroke-linecap:round;stroke-linejoin:round;stroke-width:0.25px;fill:url(#o)"/><path d="M1664.7,503.4c-3,9.7-2.9,22,1.4,27.9,2.5,3.5,5.5,3.4,8,2" transform="translate(0.5 60.1)" style="fill:none;stroke:#00030e;stroke-linecap:round;stroke-linejoin:round;stroke-width:0.25px"/><path d="M1669.9,545l1.7-3.8h.1a113.5,113.5,0,0,1,15.8-1.2c12.2,0,17.5,2.5,17.6,2.5l3.6,7.3Z" transform="translate(0.5 60.1)" style="fill:url(#p)"/><path d="M1631.3,538.5l8.9,18.9c4-2.9,11.1-1.5,14.9-12.5a22.9,22.9,0,0,1,4.1-7.3l2.9-3.3.4.3a5.4,5.4,0,0,0,4.6.9c.4-.2.9-1,.5-1.4l-7.2-6.5a3.4,3.4,0,0,0-2.9-.7l-6.9,2h-3.2a10.4,10.4,0,0,0-6.5,2.2C1638.7,532.7,1635.4,535.2,1631.3,538.5Zm23.5-2.9.4-1.9,2.7-.9Z" transform="translate(0.5 60.1)" style="fill:#f4b7bc;stroke:#f4b7bc;stroke-linecap:round;stroke-linejoin:round;stroke-width:0.25px"/><path d="M1640.2,547c1,1.2,6.5.2,12.6,1.8v.8c-3.9,5.9-9.3,5.4-12.6,7.8l-8.9-18.9C1635.9,541.2,1639.2,545.7,1640.2,547Z" transform="translate(0.5 60.1)" style="fill:#00030e;stroke:#00030e;stroke-linecap:round;stroke-linejoin:round;stroke-width:0.25px"/><path d="M1707,666.5h.1c.3-.3,25.6-26.6,24.8-36.3,0,0-1.5-6.8-12.4-17.8l-5.3-61.3h.1c27.3,7.2,48.7,66.4,47.3,76.9s-23.4,48-46.9,59.2h-.1Z" transform="translate(0.5 60.1)" style="fill:url(#q)"/><path d="M1714.1,661a94.4,94.4,0,0,0,2.9,24.9,13.4,13.4,0,0,1-2.4,1.2l-7.4-20.6s3.2-3.3,7.3-8C1714.3,659.6,1714.2,660.4,1714.1,661Z" transform="translate(0.5 60.1)" style="fill:#00030e;stroke:#00030e;stroke-linecap:round;stroke-linejoin:round;stroke-width:0.25px"/><path d="M1719.6,612.2l-4.2-37.5c15.3,2.9,19.2,14.7,16.2,24.6s-3.9,11.8-6.4,19.1C1723.7,616.6,1721.8,614.5,1719.6,612.2Z" transform="translate(0.5 60.1)" style="fill:#00030e;stroke:#00030e;stroke-linecap:round;stroke-linejoin:round;stroke-width:0.25px"/><path d="M1616,721.4v-.2c-4-74.1,6.7-120.8,12.5-145.9.7-3.2,1.4-5.9,1.9-8.3a25.3,25.3,0,0,1,18.4-19.4,93.5,93.5,0,0,1,23.8-2.9c16.2,0,31.6,3.5,41.7,6.4a25.6,25.6,0,0,1,18.1,29.8c-2.6,12.7-7.4,33-15.1,57.7s-4.6,37.9-2.2,50.6c2.1,10.7,3.9,20-1.2,32.1H1616Z" transform="translate(0.5 60.1)" style="fill:url(#r)"/><path d="M1713.8,721.2c10.9-26.2-10.2-38.9,3.4-82.6,7.4-23.9,12.2-43.8,15.1-57.7" transform="translate(0.5 60.1)" style="fill:none;stroke:#00030e;stroke-linecap:round;stroke-linejoin:round;stroke-width:0.25px"/><path d="M1639.5,603.8s-15.6,59.1-4.1,117.4" transform="translate(0.5 60.1)" style="fill:none;stroke:#00030e;stroke-linecap:round;stroke-miterlimit:10;stroke-width:0.25px"/><path d="M1652.1,597.7c-11.3,12-33.6,35.3-33.6,35.3s1.7-20.3,6.4-38.2Z" transform="translate(0.5 60.1)" style="fill:#00030e;stroke:#00030e;stroke-linecap:round;stroke-miterlimit:10;stroke-width:0.25px"/><path d="M1687.1,721.2a48.1,48.1,0,0,0,1.3-31.5c-9.4-29.5,37.4-132.4,13-141.7" transform="translate(0.5 60.1)" style="fill:none;stroke:#00030e;stroke-linecap:round;stroke-miterlimit:10;stroke-width:0.25px"/><path d="M1590.4,597.7c-6.6-23.7,40.3-58.9,40.8-59.3h.2a22.9,22.9,0,0,1,8.9,19h0l-49.9,40.5Z" transform="translate(0.5 60.1)" style="fill:url(#s)"/><path d="M1640.2,557.4l-16,13-15.7-.6c9.6-9.6,23.8-19.6,29.4-23.4A22.4,22.4,0,0,1,1640.2,557.4Z" transform="translate(0.5 60.1)" style="fill:#00030e;stroke:#00030e;stroke-miterlimit:10;stroke-width:0.25px"/><path d="M1613.6,608.5c-12.9,0-21.3-4-23.2-10.8-1-3.5.3-7.9,3.8-13.1,10.8-15.9,41.6-36,57.7-37.8h1.1c4.7,0,8.4,3.4,10.3,9.6,4,12.7-.1,33.5-11.3,41.4C1643,604.1,1627.3,608.5,1613.6,608.5Z" transform="translate(0.5 60.1)" style="fill:url(#t)"/><path d="M1663.9,576c-1.6,8.8-5.6,17.3-12,21.7-16.8,11.8-56.9,16.4-61.4,0" transform="translate(0.5 60.1)" style="fill:none;stroke:#00030e;stroke-linecap:round;stroke-miterlimit:10;stroke-width:0.25px"/><path d="M1601.7,576c14-14,37.4-27.7,50.2-29" transform="translate(0.5 60.1)" style="fill:none;stroke:#00030e;stroke-linecap:round;stroke-miterlimit:10;stroke-width:0.25px"/><path d="M1590.5,597.7c-6.7-23.9,40.8-59.2,40.8-59.2a22.5,22.5,0,0,1,8.2,12.1" transform="translate(0.5 60.1)" style="fill:none;stroke:#00030e;stroke-linecap:round;stroke-miterlimit:10;stroke-width:0.25px"/><path d="M1714.3,551.2c-13.8-4-32.3-7.5-50.5-6" transform="translate(0.5 60.1)" style="fill:none;stroke:#00030e;stroke-linecap:round;stroke-linejoin:round;stroke-width:0.25px"/><path d="M1711.7,905.2c-4.5,0-10.1-1.2-16.8-3.5h-.1L1670,742.3V721.1h44v.2a54.8,54.8,0,0,1-3.7,7.2c0,.5,1.3,57.9,3.9,72.5.4,2.4,1.1,5,1.9,8.1,3.7,13.7,9.8,36.8,3.4,94.1h0A14.4,14.4,0,0,1,1711.7,905.2Z" transform="translate(0.5 60.1)" style="fill:url(#u)"/><polygon points="1680.8 787 1682.2 876.9 1670.6 802.4 1670.6 787 1680.8 787" style="fill:#00030e;stroke:#00030e;stroke-linecap:round;stroke-miterlimit:10;stroke-width:0.25px"/><path d="M1660.7,908.4c-5.6,0-11.3-1.8-14.7-4.8-12.1-66-19.8-127.4-22.8-182.4h64.1v.2a33,33,0,0,1-14,12.3c-.7,2-19.8,55.1-12,74.1,9.9,24.1,11.8,70.2,12.1,95.6C1670.9,906.6,1666.3,908.4,1660.7,908.4Z" transform="translate(0.5 60.1)" style="fill:url(#v)"/><path d="M1623.3,721.2h90.5c-.5,1.1-1,2.2-1.6,3.3h-88.7C1623.4,723.4,1623.4,722.3,1623.3,721.2Z" transform="translate(0.5 60.1)" style="fill:#00030e;stroke:#00030e;stroke-miterlimit:10;stroke-width:0.25px"/><path d="M1627.5,915.1a11.8,11.8,0,0,1,4.2-3.8l14.4-7.8c6.7,5.8,21.7,7,27.1-.2v11.3a5.8,5.8,0,0,1-5.8,5.8h-40.1a1.8,1.8,0,0,1-1.5-2.8Z" transform="translate(0.5 60.1)" style="stroke:#00030e;stroke-linecap:round;stroke-linejoin:round;stroke-width:0.25px;fill:url(#w)"/><path d="M1719.3,903.2q-.7,7-1.8,14.7a2.9,2.9,0,0,1-2.8,2.5h-23.8a2.8,2.8,0,0,1-2.7-3.7c1.8-6,6.8-15.2,6.8-15.2C1702.8,904.3,1713.6,906.9,1719.3,903.2Z" transform="translate(0.5 60.1)" style="stroke:#00030e;stroke-linecap:round;stroke-linejoin:round;stroke-width:0.25px;fill:url(#x)"/><path d="M1683.2,726.9a26,26,0,0,1-10.1,6.6s-20,54.7-12,74.2" transform="translate(0.5 60.1)" style="fill:none;stroke:#00030e;stroke-linecap:round;stroke-miterlimit:10;stroke-width:0.25px"/><path d="M1635.4,721.2c1.4,61.2,6.8,101.8,20.8,186.7" transform="translate(0.5 60.1)" style="fill:none;stroke:#00030e;stroke-miterlimit:10;stroke-width:0.25px"/><line x1="1636.8" y1="806" x2="1631.7" y2="781.4" style="fill:none;stroke:#00030e;stroke-miterlimit:10;stroke-width:0.25px"/><line x1="1676.4" y1="812" x2="1697.7" y2="962.4" style="fill:none;stroke:#00030e;stroke-miterlimit:10;stroke-width:0.25px"/><path d="M1501.3,344.3l-2.3,6.3a21.1,21.1,0,0,1-12.4,12.4l-6.4,2.4,6.4,2.3a21.4,21.4,0,0,1,12.4,12.4l2.3,6.3,2.4-6.3a20.9,20.9,0,0,1,12.3-12.4l6.4-2.3L1516,363a20.7,20.7,0,0,1-12.3-12.4Z" transform="translate(0.5 60.1)" style="fill:#fc6b10"/><path d="M1261.7,443.5l-2.4,6.3a20.6,20.6,0,0,1-12.4,12.4l-6.3,2.4,6.3,2.3a20.8,20.8,0,0,1,12.4,12.4l2.4,6.4,2.3-6.4a20.8,20.8,0,0,1,12.4-12.4l6.3-2.3-6.3-2.4a20.6,20.6,0,0,1-12.4-12.4Z" transform="translate(0.5 60.1)" style="fill:#fc6b10"/><path d="M1758.4,680.7,1756,687a20.6,20.6,0,0,1-12.4,12.4l-6.3,2.4,6.3,2.3a20.8,20.8,0,0,1,12.4,12.4l2.4,6.3,2.3-6.3a21.1,21.1,0,0,1,12.4-12.4l6.4-2.3-6.4-2.4a20.8,20.8,0,0,1-12.4-12.4Z" transform="translate(0.5 60.1)" style="fill:#fc6b10"/><path d="M1317.4,547l-1.5,4.2a13.7,13.7,0,0,1-8,8l-4.1,1.5,4.1,1.6a13.5,13.5,0,0,1,8,8l1.5,4.1,1.6-4.1a13.2,13.2,0,0,1,8-8l4.1-1.6-4.1-1.5a13.5,13.5,0,0,1-8-8Z" transform="translate(0.5 60.1)" style="fill:#fc6b10"/><path d="M1337.1,583.9l-.7,1.8a6,6,0,0,1-3.5,3.5l-1.8.6,1.8.7a6,6,0,0,1,3.5,3.5l.7,1.8.7-1.8a5.9,5.9,0,0,1,3.4-3.5l1.8-.7-1.8-.6a5.9,5.9,0,0,1-3.4-3.5Z" transform="translate(0.5 60.1)" style="fill:#fc6b10"/><path d="M1595.5,687.2l-.6,1.8a6,6,0,0,1-3.5,3.5l-1.8.7,1.8.6a6,6,0,0,1,3.5,3.5l.6,1.8.7-1.8a6,6,0,0,1,3.5-3.5l1.8-.6-1.8-.7a6,6,0,0,1-3.5-3.5Z" transform="translate(0.5 60.1)" style="fill:#fc6b10"/><path d="M1282.7,607.8l-.6,1.8a6,6,0,0,1-3.5,3.5l-1.8.6,1.8.7a6,6,0,0,1,3.5,3.5l.6,1.8.7-1.8a6,6,0,0,1,3.5-3.5l1.8-.7-1.8-.6a6,6,0,0,1-3.5-3.5Z" transform="translate(0.5 60.1)" style="fill:#fc6b10"/><path d="M1779.5,656.6l-.7,1.8a6,6,0,0,1-3.5,3.5l-1.8.6,1.8.7a6,6,0,0,1,3.5,3.5l.7,1.8.6-1.8a6,6,0,0,1,3.5-3.5l1.8-.7-1.8-.6a6,6,0,0,1-3.5-3.5Z" transform="translate(0.5 60.1)" style="fill:#fc6b10"/><path d="M1448,382.5l-.6,1.8a6,6,0,0,1-3.5,3.5l-1.8.6,1.8.7a6,6,0,0,1,3.5,3.5l.6,1.8.7-1.8a6,6,0,0,1,3.5-3.5l1.8-.7-1.8-.6a6,6,0,0,1-3.5-3.5Z" transform="translate(0.5 60.1)" style="fill:#fc6b10"/><path d="M1466.7,826.1a87.4,87.4,0,0,0-.2,33.4,106.6,106.6,0,0,0,4,14.8c.8,2.3,1.7,4.5,2.6,6.6s1.9,4.1,2.9,6.1a100.3,100.3,0,0,0,5.9,10.1,80.1,80.1,0,0,0,5.4,7.4,67.5,67.5,0,0,0,5.4,6.1s1.9-2.4,4.7-6.5l5-7.3c1.9-2.8,3.8-5.9,6-9.2,1.1-1.7,2.1-3.4,3.1-5.2l3.3-5.5c2-3.7,4.3-7.6,6.1-11.6a107.8,107.8,0,0,0,9.2-25.7,109.8,109.8,0,0,0,2.1-27.3c-.1-4.4-.5-8.9-.9-13.1-.2-2.1-.5-4.2-.7-6.3s-.5-4.1-.8-6c-.6-3.9-1.1-7.6-1.7-10.9s-1.1-6.2-1.6-8.7c-.9-4.9-1.7-7.9-1.7-7.9s-2.8,1.1-7.4,3.4c-2.3,1.2-5,2.7-7.9,4.6a83.7,83.7,0,0,0-9.6,6.9l-5.1,4.3c-1.6,1.6-3.3,3.2-5,5a98.2,98.2,0,0,0-9.7,11.9A86.5,86.5,0,0,0,1466.7,826.1Z" transform="translate(0.5 60.1)" style="fill:url(#y)"/><path d="M1477,800.4l.9-1.5a92.3,92.3,0,0,1,4.5,8.6,119.4,119.4,0,0,1,5.2,11.7,100.5,100.5,0,0,1,7.3,28.9,262.1,262.1,0,0,1,6.1-29c.5-1.9.8-3.9,1.1-5.8a54.6,54.6,0,0,0,.4-5.8,67.5,67.5,0,0,0-.8-11.1,99.7,99.7,0,0,0-2.3-10.4c-.9-3.2-1.9-6.3-2.8-8.9l1.2-1c3,8.4,6.6,20.3,6.1,32.5a299.2,299.2,0,0,1,19.9-48.8l1-.4h0l.3,1.1a295.6,295.6,0,0,0-19.8,48.5c6.5-10.4,17-16.6,24.9-19.6v1.5a51.1,51.1,0,0,0-7.9,3.8,49.8,49.8,0,0,0-8.1,6,40.4,40.4,0,0,0-7.2,8.2,49.1,49.1,0,0,0-2.8,5,36.9,36.9,0,0,0-1.9,5.6,283.5,283.5,0,0,0-6.1,28.8c3.9-9.6,10.9-17.2,17.7-22.5a87.1,87.1,0,0,1,10.1-6.4,84,84,0,0,1,8.2-3.7v1.5a66.9,66.9,0,0,0-21.6,13.3c-7.7,7.1-14.6,17.3-16,29.9-.5,3.9-.8,7.8-1.1,11.8s-.6,7.8-.6,11.8c3.4-12.6,11.7-22.4,19.4-28.7a71.2,71.2,0,0,1,16.4-10.1l-.5,1.7a73.3,73.3,0,0,0-8.4,4.6,78.2,78.2,0,0,0-11.9,9.7c-8,8.2-15.3,20.5-15.1,34.9,0,4.6.3,9.1.5,13.6l-.7.9-.8-.8c-.2-4.5-.5-9.1-.5-13.7-.2-14.3-5.5-27.2-11.3-38.1-2.9-5.4-6.1-10.3-8.6-14.2s-5-6.8-6.2-8.4l.3-2.2a161.3,161.3,0,0,1,11.8,17.2c5.6,9.3,11.5,20.8,14.1,33.5.1-3.9.4-7.9.6-11.9s.7-7.9,1.1-11.8c1.4-12.5-1.2-24.3-4.8-34.8A167.3,167.3,0,0,0,1477,800.4Z" transform="translate(0.5 60.1)" style="fill:#fff"/><path d="M1386,826.8c-1.3,2-5,4.1-9.1,7.6a35.7,35.7,0,0,0-10.9,15.3,48.8,48.8,0,0,0-1.4,23.4c1.1,6.7,3,11.7,2.9,14.8.1-3.1,2.3-8.1,5.1-13.7s6.2-12.2,8.6-19.4a62.7,62.7,0,0,0,2.8-16.7C1384.4,833,1384.7,828.8,1386,826.8Z" transform="translate(0.5 60.1)" style="fill:#42445d"/><path d="M1212.9,799.8c2.5,2.6,4.9,8.1,7.6,14.9a219.8,219.8,0,0,0,10.5,23.2c2.7,5.2,5.5,10.1,8.1,14.8s5.2,9.1,7.4,13.2c4.3,8.3,7.4,15.4,8.1,20.1-.7-4.7.2-12.3-.4-22.2a90.7,90.7,0,0,0-2.5-16,79.3,79.3,0,0,0-6.6-17.4,63.9,63.9,0,0,0-18.2-20.7C1220.7,805.1,1215.3,802.4,1212.9,799.8Z" transform="translate(0.5 60.1)" style="fill:#42445d"/><path d="M1396.5,843.4c.7,1.4.1,4.5-.7,7.9s-1.5,7.4-.6,11.2,3.7,8.6,6,12.3,4.1,7,4,9c.1-2,2.2-5.1,4-9.5s3-10,1.6-15.7a18.6,18.6,0,0,0-7.6-10.3C1400.1,846,1397.2,844.8,1396.5,843.4Z" transform="translate(0.5 60.1)" style="fill:#42445d"/><path d="M1520.6,796.5c1.5,3.1,2.2,8.7,2.7,15.6s1.1,15.1,3,24c2.2,10.9,5,20.8,6.8,29.5s3,16,2.4,20.4c.6-4.4,3.5-11.1,5.6-20.3a84.1,84.1,0,0,0,2.2-15.2,71.4,71.4,0,0,0-1.3-17.6,59.5,59.5,0,0,0-11.2-23.7C1526.4,803.4,1522.1,799.6,1520.6,796.5Z" transform="translate(0.5 60.1)" style="fill:#42445d"/><path d="M1564.8,829.2c-.8,2-4,4.1-7.5,7.5s-7.1,8-8.7,14.2-1.2,14.9.1,20.7,3.1,10.4,3,13.2c.1-2.8,2.3-7.1,4.9-12.2a84.9,84.9,0,0,0,7.5-17.7c1.4-5.4,1.1-10.7.7-15.3S1564,831.2,1564.8,829.2Z" transform="translate(0.5 60.1)" style="fill:#42445d"/><path d="M1725.3,802.6c1.3,2.6,1.7,7.6,1.9,13.7a118.9,118.9,0,0,0,2.3,20.9c2,9.4,4.8,17.9,6.8,25.4s3.4,13.9,2.9,17.7c.5-3.8,3.1-9.7,5.1-17.7a63.8,63.8,0,0,0,.8-28.8,48.9,48.9,0,0,0-10.4-20.5C1730.5,808.4,1726.6,805.2,1725.3,802.6Z" transform="translate(0.5 60.1)" style="fill:#42445d"/><path d="M1676.9,326.3l-2.4,6.3a20.9,20.9,0,0,1-12.3,12.4l-6.4,2.3,6.4,2.4a20.7,20.7,0,0,1,12.3,12.4l2.4,6.3,2.3-6.3a21.1,21.1,0,0,1,12.4-12.4l6.4-2.4-6.4-2.3a21.4,21.4,0,0,1-12.4-12.4Z" transform="translate(0.5 60.1)" style="fill:#fc6b10"/><path d="M1737.3,321.2l-1.5,4.1a13.6,13.6,0,0,1-8.1,8l-4.1,1.5,4.1,1.6a13.4,13.4,0,0,1,8.1,8l1.5,4.1,1.5-4.1a13.4,13.4,0,0,1,8.1-8l4.1-1.6-4.1-1.5a13.6,13.6,0,0,1-8.1-8Z" transform="translate(0.5 60.1)" style="fill:#fc6b10"/><path d="M1639.5,320.3l-.7,1.8a6,6,0,0,1-3.5,3.5l-1.8.7,1.8.6a6,6,0,0,1,3.5,3.5l.7,1.8.6-1.8a6,6,0,0,1,3.5-3.5l1.8-.6-1.8-.7a6,6,0,0,1-3.5-3.5Z" transform="translate(0.5 60.1)" style="fill:#fc6b10"/><path d="M1604.7,347.3l-.7,1.8a6,6,0,0,1-3.5,3.5l-1.8.7,1.8.6a6,6,0,0,1,3.5,3.5l.7,1.8.6-1.8a6,6,0,0,1,3.5-3.5l1.8-.6-1.8-.7a6,6,0,0,1-3.5-3.5Z" transform="translate(0.5 60.1)" style="fill:#fc6b10"/><path d="M894.4,555.9h-2.1l-17.3-26h-.2c.2,3,.2,5.4.2,7v19h-1.9V526.6h2l17.4,25.9h.1c-.1-2.4-.2-4.7-.2-6.8V526.6h2Z" transform="translate(0.5 60.1)" style="fill:#42445d"/><path d="M904.3,555.9V526.6h2.1v29.3Z" transform="translate(0.5 60.1)" style="fill:#42445d"/><path d="M923.9,555.9h-2V528.5h-9.6v-1.9h21.1v1.9h-9.5Z" transform="translate(0.5 60.1)" style="fill:#42445d"/><path d="M941.5,543.1v12.8h-2.1V526.6h7c3.6,0,6.3.6,8.1,2a7.1,7.1,0,0,1,2.6,6,8.1,8.1,0,0,1-1.6,5,8.3,8.3,0,0,1-4.7,2.9l7.9,13.4h-2.4l-7.6-12.8Zm0-1.8h5.6a8.8,8.8,0,0,0,5.7-1.6,5.8,5.8,0,0,0,2.1-4.9,5.9,5.9,0,0,0-2-4.9q-2.1-1.5-6.6-1.5h-4.8Z" transform="translate(0.5 60.1)" style="fill:#42445d"/><path d="M990.1,541.2c0,4.6-1.2,8.3-3.5,11a13.3,13.3,0,0,1-19.2,0c-2.3-2.7-3.5-6.4-3.5-11.1s1.2-8.3,3.5-11a13.5,13.5,0,0,1,19.2,0C988.9,532.8,990.1,536.5,990.1,541.2Zm-24,0c0,4.2.9,7.4,2.8,9.7s4.6,3.4,8.1,3.4,6.2-1.1,8.1-3.4,2.8-5.5,2.8-9.7-1-7.5-2.8-9.7-4.6-3.4-8.1-3.4-6.2,1.1-8,3.4S966.1,537,966.1,541.2Z" transform="translate(0.5 60.1)" style="fill:#42445d"/><path d="M1018.4,555.9h-2.1V528.5h-9.5v-1.9h21.1v1.9h-9.5Z" transform="translate(0.5 60.1)" style="fill:#42445d"/><path d="M1049.9,555.9h-16V526.6h16v1.8h-14v11.1h13.2v1.9h-13.2V554h14Z" transform="translate(0.5 60.1)" style="fill:#42445d"/><path d="M1070.7,528a11.2,11.2,0,0,0-8.7,3.5c-2.1,2.4-3.2,5.6-3.2,9.7s1,7.4,3,9.7,4.8,3.5,8.5,3.5a20.7,20.7,0,0,0,6.8-1v1.8a21,21,0,0,1-7.2,1.1,12.8,12.8,0,0,1-9.8-4c-2.3-2.7-3.5-6.4-3.5-11.2a17.6,17.6,0,0,1,1.7-7.8,11.5,11.5,0,0,1,4.9-5.3,14.4,14.4,0,0,1,7.3-1.9,18.6,18.6,0,0,1,7.7,1.6l-.8,1.9A14.4,14.4,0,0,0,1070.7,528Z" transform="translate(0.5 60.1)" style="fill:#42445d"/><path d="M1106.5,555.9h-2.1V541.5h-17.1v14.4h-2V526.6h2v13h17.1v-13h2.1Z" transform="translate(0.5 60.1)" style="fill:#42445d"/><path d="M1142.8,545.5h-11.9l-4,10.4h-2.3l11.8-29.5h1.3l11.5,29.5h-2.3Zm-11.1-1.8h10.5l-4-10.6a21.4,21.4,0,0,1-1.2-3.4c-.4,1.3-.8,2.4-1.2,3.5Z" transform="translate(0.5 60.1)" style="fill:#42445d"/><path d="M1171.2,548.3a7,7,0,0,1-2.7,5.8,11.4,11.4,0,0,1-7.2,2.2,21.8,21.8,0,0,1-8.2-1.2V553a20.7,20.7,0,0,0,8.1,1.4,9,9,0,0,0,5.7-1.7,5.2,5.2,0,0,0,2.1-4.3,5.1,5.1,0,0,0-.7-2.8,6.6,6.6,0,0,0-2.3-2,32.4,32.4,0,0,0-4.6-1.9c-3-1-5.1-2.1-6.2-3.3a6.5,6.5,0,0,1-1.8-4.8,6.7,6.7,0,0,1,2.6-5.4,10,10,0,0,1,6.6-2.1,20.1,20.1,0,0,1,7.8,1.6l-.8,1.8a18.1,18.1,0,0,0-6.9-1.6,7.7,7.7,0,0,0-5.2,1.6,4.7,4.7,0,0,0-1.9,4,5.4,5.4,0,0,0,.6,2.7,5.7,5.7,0,0,0,1.9,1.9,33.2,33.2,0,0,0,4.6,2,23.9,23.9,0,0,1,5.2,2.3,6.7,6.7,0,0,1,2.5,2.5A7.1,7.1,0,0,1,1171.2,548.3Z" transform="translate(0.5 60.1)" style="fill:#42445d"/><path d="M1179,555.9V526.6h2v29.3Z" transform="translate(0.5 60.1)" style="fill:#42445d"/><path d="M1205.1,545.5h-11.9l-4.1,10.4h-2.3l11.8-29.5h1.3l11.6,29.5h-2.3Zm-11.2-1.8h10.5l-4-10.6-1.2-3.4a18,18,0,0,1-1.2,3.5Z" transform="translate(0.5 60.1)" style="fill:#42445d"/><path d="M917.8,606l-1.9-7.3H903.2l-2,7.3H889.6l12.7-39.2h14.1L929.3,606Zm-4.1-16-1.7-6.4c-.4-1.4-.9-3.2-1.4-5.5s-1-3.9-1.2-4.9a42.9,42.9,0,0,1-.9,4.5c-.5,2.1-1.5,6.2-3.1,12.3Z" transform="translate(0.5 60.1)" style="fill:#42445d"/><path d="M946.9,598.3a15.1,15.1,0,0,0,5-1.1v7.7a16.4,16.4,0,0,1-4,1.2,20.3,20.3,0,0,1-4.5.4c-3.5,0-6-.8-7.6-2.5s-2.3-4.4-2.3-8V583.6h-3.6v-4.3l4.6-3.3,2.7-6.3H944v6h7.5v7.9H944v11.7C944,597.3,945,598.3,946.9,598.3Z" transform="translate(0.5 60.1)" style="fill:#42445d"/><path d="M971.2,598.3a15.1,15.1,0,0,0,5-1.1v7.7a16.4,16.4,0,0,1-4,1.2,20.3,20.3,0,0,1-4.5.4c-3.5,0-6-.8-7.6-2.5s-2.3-4.4-2.3-8V583.6h-3.7v-4.3l4.7-3.3,2.7-6.3h6.8v6h7.5v7.9h-7.5v11.7C968.3,597.3,969.3,598.3,971.2,598.3Z" transform="translate(0.5 60.1)" style="fill:#42445d"/><path d="M995.2,606.5c-5,0-8.9-1.3-11.7-4s-4.2-6.5-4.2-11.4,1.3-9.1,3.9-11.8,6.3-4.1,11.1-4.1,8,1.2,10.5,3.6,3.7,5.8,3.7,10.2v4.7H989.9a5.2,5.2,0,0,0,1.8,4,7.8,7.8,0,0,0,4.8,1.4,27.6,27.6,0,0,0,5.1-.5,25.5,25.5,0,0,0,5-1.8v7.5a20.8,20.8,0,0,1-5.1,1.8A38.5,38.5,0,0,1,995.2,606.5Zm-.6-24.2a4.5,4.5,0,0,0-3.1,1.2,5.2,5.2,0,0,0-1.4,3.6h9a5.7,5.7,0,0,0-1.3-3.5A3.9,3.9,0,0,0,994.6,582.3Z" transform="translate(0.5 60.1)" style="fill:#42445d"/><path d="M1032.7,606V589.5a9.6,9.6,0,0,0-.9-4.6,3,3,0,0,0-2.8-1.5,4,4,0,0,0-3.8,2.1c-.8,1.4-1.2,3.8-1.2,7.3V606h-10.4V575.7h7.8l1.4,3.8h.6a8.3,8.3,0,0,1,3.7-3.2,13,13,0,0,1,5.4-1.1c3.4,0,6,1,7.8,2.9s2.8,4.7,2.8,8.2V606Z" transform="translate(0.5 60.1)" style="fill:#42445d"/><path d="M1058.7,606.5a9.1,9.1,0,0,1-5.6-1.8,10.9,10.9,0,0,1-3.7-5.4,23.8,23.8,0,0,1-1.4-8.4c0-4.9,1-8.8,3-11.5a9.5,9.5,0,0,1,8.1-4.2,9.3,9.3,0,0,1,4.5,1,10.2,10.2,0,0,1,3.5,3.4h.2a55.2,55.2,0,0,1-.5-7.1v-8.1h10.5V606h-7.9l-2.2-3.8h-.4A8.9,8.9,0,0,1,1058.7,606.5Zm4.3-8.2a3.9,3.9,0,0,0,3.6-1.6,11.1,11.1,0,0,0,1.1-4.9V591q0-4.1-1.2-5.7a4,4,0,0,0-3.6-1.7,3.6,3.6,0,0,0-3.2,2,11.3,11.3,0,0,0-1.1,5.5,10.7,10.7,0,0,0,1.1,5.3A3.7,3.7,0,0,0,1063,598.3Z" transform="translate(0.5 60.1)" style="fill:#42445d"/><path d="M1103.4,606l-2-4h-.2a13.7,13.7,0,0,1-4.3,3.6,15.5,15.5,0,0,1-5.7.9,8.8,8.8,0,0,1-6.7-2.5c-1.7-1.7-2.5-4.1-2.5-7.2s1.1-5.7,3.4-7.2,5.5-2.5,9.7-2.7l5.1-.2v-.4c0-2.5-1.2-3.7-3.7-3.7a21.7,21.7,0,0,0-8.4,2.2l-3-6.9c3.5-1.8,7.9-2.7,13.3-2.7,3.9,0,6.9,1,9,2.9s3.2,4.6,3.2,8.1V606Zm-7.8-6.8a4.8,4.8,0,0,0,3.3-1.2,4.1,4.1,0,0,0,1.3-3.2v-2.3h-2.4c-3.4.1-5.1,1.4-5.1,3.8A2.6,2.6,0,0,0,1095.6,599.2Z" transform="translate(0.5 60.1)" style="fill:#42445d"/><path d="M1136,606V589.5a9.6,9.6,0,0,0-.9-4.6,3,3,0,0,0-2.8-1.5,4,4,0,0,0-3.8,2.1c-.8,1.4-1.2,3.8-1.2,7.3V606h-10.4V575.7h7.8l1.3,3.8h.7a8.3,8.3,0,0,1,3.7-3.2,12.7,12.7,0,0,1,5.4-1.1,10.6,10.6,0,0,1,7.8,2.9c1.9,2,2.8,4.7,2.8,8.2V606Z" transform="translate(0.5 60.1)" style="fill:#42445d"/><path d="M1166.4,606.5c-4.9,0-8.7-1.3-11.2-4s-3.9-6.5-3.9-11.5,1.4-8.9,4.2-11.7,6.6-4.1,11.7-4.1a22.6,22.6,0,0,1,10,2.3l-3.1,7.7-3.5-1.3a12.7,12.7,0,0,0-3.4-.5,4.6,4.6,0,0,0-3.9,2,9.8,9.8,0,0,0-1.4,5.6q0,7.2,5.4,7.2a16.7,16.7,0,0,0,8.8-2.6v8.3A17.8,17.8,0,0,1,1166.4,606.5Z" transform="translate(0.5 60.1)" style="fill:#42445d"/><path d="M1195.9,606.5c-5.1,0-9-1.3-11.8-4s-4.2-6.5-4.2-11.4,1.3-9.1,3.9-11.8,6.3-4.1,11.1-4.1,8,1.2,10.5,3.6,3.8,5.8,3.8,10.2v4.7h-18.7a5.6,5.6,0,0,0,1.8,4,7.8,7.8,0,0,0,4.8,1.4,27.6,27.6,0,0,0,5.1-.5,25.5,25.5,0,0,0,5-1.8v7.5a19.4,19.4,0,0,1-5.1,1.8A37.2,37.2,0,0,1,1195.9,606.5Zm-.7-24.2a4.1,4.1,0,0,0-3,1.2,4.8,4.8,0,0,0-1.5,3.6h9a5.7,5.7,0,0,0-1.3-3.5A3.9,3.9,0,0,0,1195.2,582.3Z" transform="translate(0.5 60.1)" style="fill:#42445d"/><path d="M1066.3,639a3.1,3.1,0,0,1-1.1,2.5,4.6,4.6,0,0,1-3.1.9h-1.4a5.3,5.3,0,0,1-1.2-.3v-1.4a4.8,4.8,0,0,0,2.6.7,3,3,0,0,0,2-.6,1.9,1.9,0,0,0,.8-1.6,2.1,2.1,0,0,0-.4-1.1,7.3,7.3,0,0,0-1.5-1.1,5,5,0,0,1-1.7-1.3,2.7,2.7,0,0,1-.4-1.6,2.9,2.9,0,0,1,1-2.3,3.6,3.6,0,0,1,2.7-1l1.4.2,1.4.5-.5,1.2-1.1-.5-1.2-.2a2.4,2.4,0,0,0-1.7.6,1.7,1.7,0,0,0-.6,1.4,1.9,1.9,0,0,0,.1.8l.4.5,1.1.8a11.9,11.9,0,0,1,1.6,1,2.4,2.4,0,0,1,.6.9A3.6,3.6,0,0,1,1066.3,639Z" transform="translate(0.5 60.1)" style="fill:#00030e"/><path d="M1072.2,633.6a2.9,2.9,0,0,1,2.3.9,3.2,3.2,0,0,1,.9,2.4,6.7,6.7,0,0,1-.6,2.8,3.8,3.8,0,0,1-1.5,2,3.1,3.1,0,0,1-2.1.7,3.2,3.2,0,0,1-2.4-.9,3.1,3.1,0,0,1-.8-2.4,8.7,8.7,0,0,1,.5-2.8,5.3,5.3,0,0,1,1.6-2A3.8,3.8,0,0,1,1072.2,633.6Zm1.8,3.2a2.4,2.4,0,0,0-.4-1.5,1.8,1.8,0,0,0-1.4-.6,2.4,2.4,0,0,0-1.5.6,3.7,3.7,0,0,0-1,1.6,5.9,5.9,0,0,0-.4,2.3,2.5,2.5,0,0,0,.5,1.6,2,2,0,0,0,1.4.5,2.7,2.7,0,0,0,1.5-.5,5.5,5.5,0,0,0,1-1.7A7.5,7.5,0,0,0,1074,636.8Z" transform="translate(0.5 60.1)" style="fill:#00030e"/><path d="M1075.3,646.1h-.9v-1.1h.8a1,1,0,0,0,.9-.4,4.5,4.5,0,0,0,.6-1.4l1.7-8.5h-1.5v-.5l1.6-.5.2-.8a6.5,6.5,0,0,1,1-2.2,2.7,2.7,0,0,1,1.9-.6h.8l.7.2-.4,1a2,2,0,0,0-1-.2,1.8,1.8,0,0,0-1.1.3,4.8,4.8,0,0,0-.6,1.4l-.2.9h1.9l-.2.9h-1.9l-1.8,8.6a4.1,4.1,0,0,1-.9,2.1A2.1,2.1,0,0,1,1075.3,646.1Z" transform="translate(0.5 60.1)" style="fill:#00030e"/><path d="M1084.2,641.4l1.1-.2v1l-.6.2h-.6a2.1,2.1,0,0,1-1.5-.4,1.6,1.6,0,0,1-.5-1.4,5.7,5.7,0,0,1,.1-1.2l1-4.7h-1.4l.2-.5,1.4-.6,1-1.8h.7l-.4,2h2.1l-.2.9h-2.1l-1,4.7a4.9,4.9,0,0,0-.1,1.1c0,.3,0,.5.2.6A.7.7,0,0,0,1084.2,641.4Z" transform="translate(0.5 60.1)" style="fill:#00030e"/><path d="M1092.8,642.3l-.3-4.7V635h-.1l-.3,1-.7,1.4-2.3,4.9h-1.5l-.4-8.5h1.3v7.4h0c.3-.7.6-1.5,1.1-2.5l2.3-4.9h1.4l.3,4.6v2.8h.1a7,7,0,0,1,.6-1.7c.3-.7,1.2-2.6,2.5-5.7h1.4l-3.9,8.5Z" transform="translate(0.5 60.1)" style="fill:#00030e"/><path d="M1102.7,633.6a2.4,2.4,0,0,1,2.2,1.5h.1l.5-1.3h1l-1.8,8.5h-1.1l.2-1.6h0a3.8,3.8,0,0,1-3,1.7,2.1,2.1,0,0,1-1.7-.7,3.3,3.3,0,0,1-.6-2.1,7.3,7.3,0,0,1,.6-3,4,4,0,0,1,1.5-2.2A3.4,3.4,0,0,1,1102.7,633.6Zm-1.4,7.8a2.2,2.2,0,0,0,1.5-.8,4.7,4.7,0,0,0,1.2-1.8,6.6,6.6,0,0,0,.4-2.3,1.7,1.7,0,0,0-.4-1.3,1.6,1.6,0,0,0-1.1-.5,2.1,2.1,0,0,0-1.6.7,3.9,3.9,0,0,0-1,1.8,6.4,6.4,0,0,0-.4,2.4,2.3,2.3,0,0,0,.3,1.3A1.4,1.4,0,0,0,1101.3,641.4Z" transform="translate(0.5 60.1)" style="fill:#00030e"/><path d="M1112.6,633.6h1l-.3,1.2h-.8a2.3,2.3,0,0,0-1.4.4,6.4,6.4,0,0,0-1,1.3,4.4,4.4,0,0,0-.7,1.9l-.9,3.9h-1.3l1.9-8.5h1v1.5h0l1-1,.7-.5Z" transform="translate(0.5 60.1)" style="fill:#00030e"/><path d="M1116.9,642.4a2.7,2.7,0,0,1-2.2-.8,3.2,3.2,0,0,1-.8-2.4,6.9,6.9,0,0,1,.5-2.8,4.9,4.9,0,0,1,1.6-2.1,3.1,3.1,0,0,1,2.1-.7,3,3,0,0,1,1.8.5,1.9,1.9,0,0,1,.6,1.5,2.7,2.7,0,0,1-1.3,2.2,7.5,7.5,0,0,1-3.7.8h-.3v.6a2.1,2.1,0,0,0,.5,1.6,1.8,1.8,0,0,0,1.5.6l1-.2,1.3-.5v1.1a5.5,5.5,0,0,1-1.3.5Zm1.1-7.7a2.6,2.6,0,0,0-1.5.7,5.2,5.2,0,0,0-1.1,2.1h.1a6.2,6.2,0,0,0,2.7-.5,1.3,1.3,0,0,0,1-1.3.9.9,0,0,0-.3-.7A1.2,1.2,0,0,0,1118,634.7Z" transform="translate(0.5 60.1)" style="fill:#00030e"/><path d="M1131.5,642.3h-5.7l2.4-11.4h5.7l-.2,1.2h-4.5l-.7,3.6h4.1l-.2,1.2h-4.2l-.8,4.2h4.4Z" transform="translate(0.5 60.1)" style="fill:#00030e"/><path d="M1138.9,642.3l1.2-5.4a5.4,5.4,0,0,0,.1-1.1,1.1,1.1,0,0,0-.2-.8,1.2,1.2,0,0,0-.9-.3,2.7,2.7,0,0,0-1.4.5,3.6,3.6,0,0,0-1.1,1.3,6.6,6.6,0,0,0-.8,2.1l-.8,3.7h-1.3l1.8-8.5h1.1v1.5h0a5.8,5.8,0,0,1,1.5-1.3,2.3,2.3,0,0,1,1.4-.4,2.5,2.5,0,0,1,1.6.5,2.1,2.1,0,0,1,.6,1.6,9.3,9.3,0,0,1-.2,1.4l-1.1,5.2Z" transform="translate(0.5 60.1)" style="fill:#00030e"/><path d="M1151,633.8l-.2.8-1.6.2a2.1,2.1,0,0,1,.3,1.2,3.1,3.1,0,0,1-3.3,3.3h-.7c-.7.3-1.1.6-1.1,1s.1.4.3.4a1.5,1.5,0,0,0,.8.2h.9a4.2,4.2,0,0,1,2,.7,2,2,0,0,1,.6,1.5,2.3,2.3,0,0,1-1.1,2.2,5.1,5.1,0,0,1-3.2.8,5.4,5.4,0,0,1-2.4-.5,2.1,2.1,0,0,1-.8-1.7,2.4,2.4,0,0,1,.5-1.4,4.8,4.8,0,0,1,1.9-1,.9.9,0,0,1-.7-.9,1.8,1.8,0,0,1,.4-1l1.1-.7-.8-.7a2.1,2.1,0,0,1-.3-1.2,3,3,0,0,1,1-2.4,2.9,2.9,0,0,1,2.3-1l1.2.2Zm-8.3,10a1.4,1.4,0,0,0,.5,1,3.3,3.3,0,0,0,1.5.3,4.9,4.9,0,0,0,2.3-.5,1.6,1.6,0,0,0,.8-1.4.8.8,0,0,0-.5-.7,2.1,2.1,0,0,0-1.4-.4l-1.2-.2a4.2,4.2,0,0,0-1.5.7A2.1,2.1,0,0,0,1142.7,643.8Zm2.2-6.8a1.2,1.2,0,0,0,.4,1,1.3,1.3,0,0,0,.9.4,2.1,2.1,0,0,0,1.1-.4,2.2,2.2,0,0,0,.7-.9,2.7,2.7,0,0,0,.3-1.2,1.5,1.5,0,0,0-.4-1,1.3,1.3,0,0,0-1-.3,1.7,1.7,0,0,0-1,.3,1.6,1.6,0,0,0-.7.9A2.4,2.4,0,0,0,1144.9,637Z" transform="translate(0.5 60.1)" style="fill:#00030e"/><path d="M1152.2,642.3h-1.3l1.8-8.5h1.4Zm.9-10.7a.8.8,0,0,1,.3-.7.6.6,0,0,1,.6-.3c.5,0,.7.2.7.7a.9.9,0,0,1-.3.7.6.6,0,0,1-.6.3l-.5-.2A.8.8,0,0,1,1153.1,631.6Z" transform="translate(0.5 60.1)" style="fill:#00030e"/><path d="M1160.2,642.3l1.1-5.4a8.9,8.9,0,0,0,.2-1.1,1.1,1.1,0,0,0-.3-.8,1.2,1.2,0,0,0-.9-.3,2.4,2.4,0,0,0-1.3.5,3.8,3.8,0,0,0-1.2,1.3,6.5,6.5,0,0,0-.7,2.1l-.8,3.7H1155l1.8-8.5h1.1l-.2,1.5h.1a7.9,7.9,0,0,1,1.4-1.3,2.8,2.8,0,0,1,1.5-.4,2.3,2.3,0,0,1,1.5.5,2.1,2.1,0,0,1,.6,1.6,9.3,9.3,0,0,1-.2,1.4l-1.1,5.2Z" transform="translate(0.5 60.1)" style="fill:#00030e"/><path d="M1167.6,642.4a2.8,2.8,0,0,1-2.3-.8,3.6,3.6,0,0,1-.8-2.4,7.1,7.1,0,0,1,.6-2.8,5.7,5.7,0,0,1,1.5-2.1,3.1,3.1,0,0,1,2.1-.7,3,3,0,0,1,1.8.5,1.9,1.9,0,0,1,.6,1.5,2.5,2.5,0,0,1-1.3,2.2,7.3,7.3,0,0,1-3.7.8h-.2v.6a2.5,2.5,0,0,0,.5,1.6,1.8,1.8,0,0,0,1.5.6l1-.2,1.3-.5v1.1a4.3,4.3,0,0,1-1.3.5Zm1-7.7a2.6,2.6,0,0,0-1.5.7,5.1,5.1,0,0,0-1,2.1h0a7,7,0,0,0,2.8-.5,1.4,1.4,0,0,0,.9-1.3.9.9,0,0,0-.3-.7A1.2,1.2,0,0,0,1168.6,634.7Z" transform="translate(0.5 60.1)" style="fill:#00030e"/><path d="M1175.4,642.4a2.7,2.7,0,0,1-2.2-.8,3.2,3.2,0,0,1-.8-2.4,6.9,6.9,0,0,1,.5-2.8,4.9,4.9,0,0,1,1.6-2.1,3.1,3.1,0,0,1,2.1-.7,3,3,0,0,1,1.8.5,1.9,1.9,0,0,1,.6,1.5,2.7,2.7,0,0,1-1.3,2.2,7.5,7.5,0,0,1-3.7.8h-.3v.6a2.5,2.5,0,0,0,.5,1.6,1.8,1.8,0,0,0,1.5.6l1-.2,1.3-.5v1.1a5.5,5.5,0,0,1-1.3.5Zm1.1-7.7a2.6,2.6,0,0,0-1.5.7,5.2,5.2,0,0,0-1.1,2.1h.1a6.2,6.2,0,0,0,2.7-.5,1.3,1.3,0,0,0,1-1.3.9.9,0,0,0-.3-.7A1.2,1.2,0,0,0,1176.5,634.7Z" transform="translate(0.5 60.1)" style="fill:#00030e"/><path d="M1185.3,633.6h1l-.3,1.2h-.8a2.3,2.3,0,0,0-1.4.4l-1.1,1.3a6,6,0,0,0-.6,1.9l-.9,3.9h-1.3l1.8-8.5h1.1v1.5h0a4.6,4.6,0,0,1,1-1l.7-.5Z" transform="translate(0.5 60.1)" style="fill:#00030e"/><path d="M1187.5,642.3h-1.3l1.9-8.5h1.3Zm.9-10.7a.8.8,0,0,1,.3-.7.7.7,0,0,1,.6-.3c.5,0,.7.2.7.7a.9.9,0,0,1-.3.7.6.6,0,0,1-.6.3l-.5-.2A.8.8,0,0,1,1188.4,631.6Z" transform="translate(0.5 60.1)" style="fill:#00030e"/><path d="M1195.5,642.3l1.2-5.4a5.4,5.4,0,0,0,.1-1.1,1.1,1.1,0,0,0-.3-.8c-.1-.2-.4-.3-.8-.3a2.4,2.4,0,0,0-1.4.5,5.1,5.1,0,0,0-1.2,1.3,10.3,10.3,0,0,0-.7,2.1l-.8,3.7h-1.3l1.8-8.5h1.1l-.2,1.5h.1a7.9,7.9,0,0,1,1.4-1.3,2.8,2.8,0,0,1,1.5-.4,1.8,1.8,0,0,1,2.1,2.1,3.9,3.9,0,0,1-.2,1.4l-1.1,5.2Z" transform="translate(0.5 60.1)" style="fill:#00030e"/><path d="M1207.6,633.8l-.2.8-1.6.2a2.1,2.1,0,0,1,.3,1.2,3.1,3.1,0,0,1-3.3,3.3h-.7c-.7.3-1.1.6-1.1,1s.1.4.3.4l.7.2h.9a4.3,4.3,0,0,1,2.1.7,2,2,0,0,1,.6,1.5,2.5,2.5,0,0,1-1.1,2.2,5.3,5.3,0,0,1-3.2.8,5.4,5.4,0,0,1-2.4-.5,2,2,0,0,1-.3-3.1,5,5,0,0,1,1.8-1,1,1,0,0,1-.6-.9,1.3,1.3,0,0,1,.4-1,5.2,5.2,0,0,1,1.1-.7,2.7,2.7,0,0,1-.8-.7,2.1,2.1,0,0,1-.3-1.2,3.2,3.2,0,0,1,3.3-3.4l1.2.2Zm-8.3,10a1.4,1.4,0,0,0,.5,1,3.3,3.3,0,0,0,1.5.3,4.2,4.2,0,0,0,2.2-.5,1.4,1.4,0,0,0,.8-1.4.7.7,0,0,0-.4-.7,2.3,2.3,0,0,0-1.4-.4l-1.3-.2a3.7,3.7,0,0,0-1.4.7A2.1,2.1,0,0,0,1199.3,643.8Zm2.2-6.8a1.5,1.5,0,0,0,.3,1,1.8,1.8,0,0,0,1,.4,2.1,2.1,0,0,0,1.1-.4,2.2,2.2,0,0,0,.7-.9,5,5,0,0,0,.2-1.2,1.1,1.1,0,0,0-1.3-1.3,2,2,0,0,0-1.1.3,2.2,2.2,0,0,0-.7.9A4.3,4.3,0,0,0,1201.5,637Z" transform="translate(0.5 60.1)" style="fill:#00030e"/><path d="M958.5,661.8a3.1,3.1,0,0,1-1.1,2.5,4.6,4.6,0,0,1-3.1.9h-1.4a5.3,5.3,0,0,1-1.2-.3v-1.4a4.8,4.8,0,0,0,2.6.7,2.8,2.8,0,0,0,2-.6,1.9,1.9,0,0,0,.8-1.6,1.5,1.5,0,0,0-.4-1.1,7.3,7.3,0,0,0-1.5-1.1,5,5,0,0,1-1.7-1.3,2.9,2.9,0,0,1-.4-1.6,3.3,3.3,0,0,1,1-2.4,4,4,0,0,1,2.7-.9l1.4.2a3.9,3.9,0,0,1,1.4.5l-.5,1.2-1.1-.5-1.2-.2a2.4,2.4,0,0,0-1.7.6,1.7,1.7,0,0,0-.6,1.4,1.5,1.5,0,0,0,.1.7,2.1,2.1,0,0,0,.4.6l1.1.8,1.6,1a2.4,2.4,0,0,1,.6.9A3.6,3.6,0,0,1,958.5,661.8Z" transform="translate(0.5 60.1)" style="fill:#00030e"/><path d="M964.4,656.4a2.9,2.9,0,0,1,2.3.9,3.2,3.2,0,0,1,.9,2.4,6.7,6.7,0,0,1-.6,2.8,3.8,3.8,0,0,1-1.5,2,3.1,3.1,0,0,1-2.1.7,3.2,3.2,0,0,1-2.4-.9,3.2,3.2,0,0,1-.8-2.4,8.7,8.7,0,0,1,.5-2.8,5.3,5.3,0,0,1,1.6-2A3.8,3.8,0,0,1,964.4,656.4Zm1.8,3.1a2.3,2.3,0,0,0-.4-1.4,1.8,1.8,0,0,0-1.4-.6,2.4,2.4,0,0,0-1.5.6,3.7,3.7,0,0,0-1,1.6,5.9,5.9,0,0,0-.4,2.3,2.5,2.5,0,0,0,.5,1.6,2,2,0,0,0,1.4.5,2.7,2.7,0,0,0,1.5-.5,5.5,5.5,0,0,0,1-1.7A8.8,8.8,0,0,0,966.2,659.5Z" transform="translate(0.5 60.1)" style="fill:#00030e"/><path d="M967.5,668.9h-.9v-1.1h.8a1.1,1.1,0,0,0,1-.5,5.9,5.9,0,0,0,.5-1.3l1.7-8.5h-1.5V657l1.6-.5.2-.8a6.5,6.5,0,0,1,1-2.2,2.7,2.7,0,0,1,1.9-.6h.8l.7.2-.4,1-1-.3a1.8,1.8,0,0,0-1.1.4,4.8,4.8,0,0,0-.6,1.4l-.2.8H974l-.2,1h-1.9l-1.8,8.6a4.1,4.1,0,0,1-.9,2.1A2.1,2.1,0,0,1,967.5,668.9Z" transform="translate(0.5 60.1)" style="fill:#00030e"/><path d="M976.4,664.2l1.1-.2v1l-.6.2h-.6a2.1,2.1,0,0,1-1.5-.4,1.6,1.6,0,0,1-.5-1.4,5.7,5.7,0,0,1,.1-1.2l1-4.7H974l.2-.5,1.4-.6,1-1.8h.7l-.4,1.9H979l-.2,1h-2.1l-1,4.7a4.9,4.9,0,0,0-.1,1.1c0,.3,0,.5.2.6A.7.7,0,0,0,976.4,664.2Z" transform="translate(0.5 60.1)" style="fill:#00030e"/><path d="M985,665.1l-.3-4.7v-2.6h-.1l-.3,1-.7,1.4-2.3,4.9h-1.5l-.4-8.6h1.3l.2,4.7v.7c0,.7-.1,1.4-.1,2.1h0l1.1-2.6,2.3-4.9h1.4l.3,4.7c0,.8.1,1.5.1,2v.8h.1a7,7,0,0,1,.6-1.7c.3-.7,1.2-2.6,2.5-5.8h1.4l-3.9,8.6Z" transform="translate(0.5 60.1)" style="fill:#00030e"/><path d="M994.9,656.4a2.4,2.4,0,0,1,2.2,1.5h.1l.5-1.4h1l-1.8,8.6h-1.1l.2-1.6h0a4.1,4.1,0,0,1-3,1.7,2.1,2.1,0,0,1-1.7-.7,3.3,3.3,0,0,1-.6-2.1,7.3,7.3,0,0,1,.6-3,4.5,4.5,0,0,1,1.5-2.2A3.7,3.7,0,0,1,994.9,656.4Zm-1.4,7.8a2.2,2.2,0,0,0,1.5-.8,4.7,4.7,0,0,0,1.2-1.8,6.7,6.7,0,0,0,.4-2.4,1.6,1.6,0,0,0-.4-1.2,1.3,1.3,0,0,0-1.1-.5,1.8,1.8,0,0,0-1.5.7,3.3,3.3,0,0,0-1.1,1.8,6.1,6.1,0,0,0-.4,2.4,2.3,2.3,0,0,0,.3,1.3A1.4,1.4,0,0,0,993.5,664.2Z" transform="translate(0.5 60.1)" style="fill:#00030e"/><path d="M1004.8,656.4h1l-.3,1.2h-.8a2.5,2.5,0,0,0-1.4.4,4.5,4.5,0,0,0-1,1.3,4.4,4.4,0,0,0-.7,1.9l-.9,3.9h-1.3l1.9-8.6h1v1.6h0a4.6,4.6,0,0,1,1-1l.7-.5Z" transform="translate(0.5 60.1)" style="fill:#00030e"/><path d="M1009.1,665.2a2.7,2.7,0,0,1-2.2-.8,3.2,3.2,0,0,1-.8-2.4,6.9,6.9,0,0,1,.5-2.8,4.9,4.9,0,0,1,1.6-2.1,3.1,3.1,0,0,1,2.1-.7,3,3,0,0,1,1.8.5,1.9,1.9,0,0,1,.6,1.5,2.7,2.7,0,0,1-1.3,2.2,7.5,7.5,0,0,1-3.7.8h-.3v.6a2.5,2.5,0,0,0,.5,1.6,1.7,1.7,0,0,0,1.5.5h1l1.3-.5v1.1a5.5,5.5,0,0,1-1.3.5Zm1.1-7.7a2.6,2.6,0,0,0-1.5.7,5.2,5.2,0,0,0-1.1,2.1h.1a6.2,6.2,0,0,0,2.7-.5,1.3,1.3,0,0,0,1-1.3.9.9,0,0,0-.3-.7A1.2,1.2,0,0,0,1010.2,657.5Z" transform="translate(0.5 60.1)" style="fill:#00030e"/><path d="M1020.3,660.4l-1,4.7H1018l2.4-11.4h2.5c2.3,0,3.5.9,3.5,2.8s-1,3-2.9,3.5l1.8,5.1h-1.4l-1.6-4.7Zm1.1-5.5c-.5,2.5-.8,4-.9,4.3h1.4a3.9,3.9,0,0,0,2.3-.6,2.6,2.6,0,0,0,.8-1.9,1.8,1.8,0,0,0-.5-1.4,3,3,0,0,0-1.8-.4Z" transform="translate(0.5 60.1)" style="fill:#00030e"/><path d="M1030.2,665.2a2.7,2.7,0,0,1-2.2-.8,3.2,3.2,0,0,1-.9-2.4,7.1,7.1,0,0,1,.6-2.8,4.9,4.9,0,0,1,1.6-2.1,3.1,3.1,0,0,1,2.1-.7,3,3,0,0,1,1.8.5,1.9,1.9,0,0,1,.6,1.5,2.7,2.7,0,0,1-1.3,2.2,7.5,7.5,0,0,1-3.7.8h-.3v.6a2.1,2.1,0,0,0,.5,1.6,1.6,1.6,0,0,0,1.4.5h1.1l1.2-.5v1.1a3.8,3.8,0,0,1-1.2.5Zm1.1-7.7a2.6,2.6,0,0,0-1.5.7,5.2,5.2,0,0,0-1.1,2.1h.1a6.2,6.2,0,0,0,2.7-.5,1.3,1.3,0,0,0,1-1.3.9.9,0,0,0-.3-.7A1.2,1.2,0,0,0,1031.3,657.5Z" transform="translate(0.5 60.1)" style="fill:#00030e"/><path d="M1039.2,656.4a1.8,1.8,0,0,1,1.3.4,2,2,0,0,1,.9,1.1h.1l.5-1.4h1l-2.6,12.4h-1.3l.8-3.7a6.1,6.1,0,0,1,.4-1.7h-.1a5.5,5.5,0,0,1-1.4,1.3,2.8,2.8,0,0,1-1.5.4,2.1,2.1,0,0,1-1.7-.7,3.3,3.3,0,0,1-.6-2.1,7.8,7.8,0,0,1,.6-3.1,7.1,7.1,0,0,1,1.5-2.2A3.3,3.3,0,0,1,1039.2,656.4Zm-1.5,7.8a2.2,2.2,0,0,0,1.5-.8,5.2,5.2,0,0,0,1.3-1.8,6.2,6.2,0,0,0,.4-2.3,1.7,1.7,0,0,0-.4-1.3,1.3,1.3,0,0,0-1.2-.5,2,2,0,0,0-1.4.6,4,4,0,0,0-1.1,1.9,6.1,6.1,0,0,0-.4,2.4C1036.4,663.6,1036.8,664.2,1037.7,664.2Z" transform="translate(0.5 60.1)" style="fill:#00030e"/><path d="M1047,656.5l-1.2,5.5a4.1,4.1,0,0,0-.1,1c0,.8.3,1.2,1.1,1.2a2.7,2.7,0,0,0,1.4-.5,4.7,4.7,0,0,0,1.1-1.3,6.3,6.3,0,0,0,.8-2.2l.8-3.7h1.3l-1.8,8.6h-1.1l.2-1.6h-.1a4.8,4.8,0,0,1-1.5,1.4,3.5,3.5,0,0,1-1.4.3,2.1,2.1,0,0,1-1.6-.5,2,2,0,0,1-.6-1.5,9.3,9.3,0,0,1,.2-1.4l1.1-5.3Z" transform="translate(0.5 60.1)" style="fill:#00030e"/><path d="M1054.4,665.1h-1.3l1.9-8.6h1.3Zm.9-10.7a.8.8,0,0,1,.3-.7.6.6,0,0,1,.6-.3c.5,0,.7.2.7.7a.9.9,0,0,1-.3.7.6.6,0,0,1-.6.3l-.5-.2A.8.8,0,0,1,1055.3,654.4Z" transform="translate(0.5 60.1)" style="fill:#00030e"/><path d="M1062.6,656.4h.9l-.3,1.2h-.8a2,2,0,0,0-1.3.4,4.7,4.7,0,0,0-1.1,1.3,10.7,10.7,0,0,0-.7,1.9l-.8,3.9h-1.3l1.8-8.6h1.1l-.2,1.6h.1l.9-1,.8-.5Z" transform="translate(0.5 60.1)" style="fill:#00030e"/><path d="M1066.9,665.2a3,3,0,0,1-2.3-.8,3.6,3.6,0,0,1-.8-2.4,7.1,7.1,0,0,1,.6-2.8,5.7,5.7,0,0,1,1.5-2.1,3.5,3.5,0,0,1,2.1-.7,3,3,0,0,1,1.8.5,1.9,1.9,0,0,1,.6,1.5,2.5,2.5,0,0,1-1.3,2.2,7.3,7.3,0,0,1-3.7.8h-.2v.6a2.5,2.5,0,0,0,.5,1.6,1.7,1.7,0,0,0,1.5.5h1l1.3-.5v1.1a4.3,4.3,0,0,1-1.3.5Zm1.1-7.7a2.6,2.6,0,0,0-1.6.7,5.1,5.1,0,0,0-1,2.1h.1a6.5,6.5,0,0,0,2.7-.5,1.4,1.4,0,0,0,.9-1.3.9.9,0,0,0-.3-.7C1068.7,657.6,1068.4,657.5,1068,657.5Z" transform="translate(0.5 60.1)" style="fill:#00030e"/><path d="M1076.3,665.1l1.2-5.4a4.9,4.9,0,0,0,.1-1.1,1.9,1.9,0,0,0-.2-.8,1.1,1.1,0,0,0-.8-.3,1.7,1.7,0,0,0-1.3.5,3.6,3.6,0,0,0-1.1,1.3,6.5,6.5,0,0,0-.7,2.1l-.8,3.7h-1.3l1.8-8.6h1.1l-.2,1.6h.1a5.3,5.3,0,0,1,1.3-1.3,2.5,2.5,0,0,1,1.4-.4,1.7,1.7,0,0,1,1.9,1.9h.1a4.7,4.7,0,0,1,1.4-1.4,3,3,0,0,1,1.6-.5,2.5,2.5,0,0,1,1.5.5,2.5,2.5,0,0,1,.5,1.6,8.2,8.2,0,0,1-.1,1.4l-1.2,5.2h-1.3l1.2-5.4a5.4,5.4,0,0,0,.1-1.1,1,1,0,0,0-.3-.8c-.1-.2-.4-.3-.8-.3a1.9,1.9,0,0,0-1.2.4,3.5,3.5,0,0,0-1.1,1.3,5.9,5.9,0,0,0-.7,2l-.9,3.9Z" transform="translate(0.5 60.1)" style="fill:#00030e"/><path d="M1088.7,665.2a2.8,2.8,0,0,1-2.3-.8,3.6,3.6,0,0,1-.8-2.4,7.1,7.1,0,0,1,.6-2.8,5.7,5.7,0,0,1,1.5-2.1,3.1,3.1,0,0,1,2.1-.7,3,3,0,0,1,1.8.5,1.9,1.9,0,0,1,.6,1.5,2.5,2.5,0,0,1-1.3,2.2,7.3,7.3,0,0,1-3.7.8h-.2v.6a2.5,2.5,0,0,0,.5,1.6,1.7,1.7,0,0,0,1.5.5h1l1.3-.5v1.1a4.3,4.3,0,0,1-1.3.5Zm1-7.7a2.6,2.6,0,0,0-1.5.7,5.1,5.1,0,0,0-1,2.1h0a7,7,0,0,0,2.8-.5,1.4,1.4,0,0,0,.9-1.3.9.9,0,0,0-.3-.7A1.2,1.2,0,0,0,1089.7,657.5Z" transform="translate(0.5 60.1)" style="fill:#00030e"/><path d="M1098.4,665.1l1.1-5.4a8.9,8.9,0,0,0,.2-1.1,1,1,0,0,0-.3-.8,1.2,1.2,0,0,0-.9-.3,1.8,1.8,0,0,0-1.3.5,3,3,0,0,0-1.2,1.3,10.2,10.2,0,0,0-.8,2.1l-.7,3.7h-1.3l1.8-8.6h1.1l-.2,1.6h.1a4.2,4.2,0,0,1,1.4-1.3,2.8,2.8,0,0,1,1.5-.4,2.5,2.5,0,0,1,1.5.5,2,2,0,0,1,.6,1.5,8.9,8.9,0,0,1-.2,1.5l-1.1,5.2Z" transform="translate(0.5 60.1)" style="fill:#00030e"/><path d="M1105,664.2l1.1-.2v1l-.7.2h-.6a2.4,2.4,0,0,1-1.5-.4,2,2,0,0,1-.5-1.4,7.4,7.4,0,0,1,.2-1.2l.9-4.7h-1.3V657l1.5-.6.9-1.8h.8l-.4,1.9h2.1l-.2,1h-2.1l-1,4.7a6.5,6.5,0,0,0-.2,1.1.8.8,0,0,0,.2.6A.9.9,0,0,0,1105,664.2Z" transform="translate(0.5 60.1)" style="fill:#00030e"/><path d="M1112.8,662.7a2.3,2.3,0,0,1-.9,1.9,3.8,3.8,0,0,1-2.4.6,4.7,4.7,0,0,1-2.4-.5v-1.2l1.2.5,1.2.2a3.3,3.3,0,0,0,1.5-.4,1.4,1.4,0,0,0,.5-1,1.1,1.1,0,0,0-.3-.8l-1.2-.8a6.1,6.1,0,0,1-1.4-1.1,2,2,0,0,1-.4-1.3,2.1,2.1,0,0,1,.7-1.7,3.1,3.1,0,0,1,2.1-.7,5.8,5.8,0,0,1,2.6.6l-.4,1-.5-.2a4.7,4.7,0,0,0-1.7-.3,1.8,1.8,0,0,0-1.1.3,1.2,1.2,0,0,0-.4.9,1.9,1.9,0,0,0,.2.8l1.2.8,1.2.8a1.8,1.8,0,0,1,.5.7A2.4,2.4,0,0,1,1112.8,662.7Z" transform="translate(0.5 60.1)" style="fill:#00030e"/><path d="M1125.2,661.8a3.1,3.1,0,0,1-1.1,2.5,5,5,0,0,1-3.1.9h-1.5a3.5,3.5,0,0,1-1.1-.3v-1.4a4.8,4.8,0,0,0,2.6.7,3.2,3.2,0,0,0,2-.6,1.9,1.9,0,0,0,.7-1.6,1.5,1.5,0,0,0-.4-1.1,4.1,4.1,0,0,0-1.5-1.1,4.5,4.5,0,0,1-1.6-1.3,3,3,0,0,1-.5-1.6,3.4,3.4,0,0,1,1.1-2.4,3.7,3.7,0,0,1,2.7-.9l1.4.2a4.8,4.8,0,0,1,1.4.5l-.5,1.2a4.3,4.3,0,0,0-1.2-.5l-1.1-.2a2.4,2.4,0,0,0-1.7.6,1.7,1.7,0,0,0-.7,1.4,1.4,1.4,0,0,0,.2.7l.4.6,1.1.8,1.6,1,.6.9A3.6,3.6,0,0,1,1125.2,661.8Z" transform="translate(0.5 60.1)" style="fill:#00030e"/><path d="M1130.3,665.2a2.8,2.8,0,0,1-1.3-.3,3.1,3.1,0,0,1-.9-1.1h-.1v.3a4.3,4.3,0,0,0-.1.5c0,.2-.3,1.7-.9,4.3h-1.3l2.6-12.4h1.1l-.2,1.7h.1a3.8,3.8,0,0,1,2.9-1.8,2.1,2.1,0,0,1,1.7.8,3.3,3.3,0,0,1,.6,2.1,7.3,7.3,0,0,1-.6,3,4.9,4.9,0,0,1-1.4,2.2A3.6,3.6,0,0,1,1130.3,665.2Zm1.5-7.7a2.3,2.3,0,0,0-1.6.7,5.2,5.2,0,0,0-1.2,1.9,5.9,5.9,0,0,0-.5,2.3,1.7,1.7,0,0,0,.5,1.3,1.7,1.7,0,0,0,1.2.5,2.1,2.1,0,0,0,1.5-.7,3.9,3.9,0,0,0,1-1.8,6.4,6.4,0,0,0,.4-2.4C1133.1,658.1,1132.7,657.5,1131.8,657.5Z" transform="translate(0.5 60.1)" style="fill:#00030e"/><path d="M1139.1,665.2a2.6,2.6,0,0,1-2.2-.8,3.2,3.2,0,0,1-.9-2.4,7.1,7.1,0,0,1,.6-2.8,4.9,4.9,0,0,1,1.6-2.1,3.1,3.1,0,0,1,2.1-.7,3,3,0,0,1,1.8.5,1.9,1.9,0,0,1,.6,1.5,2.7,2.7,0,0,1-1.3,2.2,7.5,7.5,0,0,1-3.7.8h-.3v.6a2.1,2.1,0,0,0,.5,1.6,1.6,1.6,0,0,0,1.4.5h1l1.3-.5v1.1a4.3,4.3,0,0,1-1.3.5Zm1.1-7.7a2.3,2.3,0,0,0-1.5.7,4.2,4.2,0,0,0-1.1,2.1h.1a6.2,6.2,0,0,0,2.7-.5,1.5,1.5,0,0,0,1-1.3.9.9,0,0,0-.3-.7A1.2,1.2,0,0,0,1140.2,657.5Z" transform="translate(0.5 60.1)" style="fill:#00030e"/><path d="M1147.1,665.2a2.8,2.8,0,0,1-3.2-3.1,6.8,6.8,0,0,1,.6-2.9,4.9,4.9,0,0,1,1.6-2.1,3.7,3.7,0,0,1,2.3-.7,4.5,4.5,0,0,1,2,.4l-.3,1.1a3.8,3.8,0,0,0-1.7-.4,2.5,2.5,0,0,0-1.6.6,3.1,3.1,0,0,0-1.1,1.6,6.4,6.4,0,0,0-.5,2.4,2,2,0,0,0,.6,1.5,1.7,1.7,0,0,0,1.4.6l1-.2,1-.4v1.2A4.6,4.6,0,0,1,1147.1,665.2Z" transform="translate(0.5 60.1)" style="fill:#00030e"/><path d="M1152.1,665.1h-1.3l1.8-8.6h1.3Zm.9-10.7a1.2,1.2,0,0,1,.2-.7.9.9,0,0,1,.7-.3.6.6,0,0,1,.7.7.9.9,0,0,1-.3.7.9.9,0,0,1-.6.3l-.5-.2C1153,654.8,1153,654.6,1153,654.4Z" transform="translate(0.5 60.1)" style="fill:#00030e"/><path d="M1153.6,668.9h-1v-1.1h.9a.9.9,0,0,0,.9-.5,3.2,3.2,0,0,0,.5-1.3l1.8-8.5h-1.5V657l1.6-.5v-.8a6.5,6.5,0,0,1,1-2.2,2.9,2.9,0,0,1,1.9-.6h.8l.7.2-.4,1-1-.3a1.8,1.8,0,0,0-1.1.4,4.8,4.8,0,0,0-.6,1.4v.8h1.8l-.2,1H1158l-1.8,8.6a4.1,4.1,0,0,1-1,2.1A2,2,0,0,1,1153.6,668.9Zm7.6-3.8h-1.4l1.9-8.6h1.3Zm.8-10.7a.8.8,0,0,1,.3-.7.7.7,0,0,1,.6-.3c.5,0,.7.2.7.7a1.4,1.4,0,0,1-.2.7.9.9,0,0,1-.7.3l-.5-.2A.8.8,0,0,1,1162,654.4Z" transform="translate(0.5 60.1)" style="fill:#00030e"/><path d="M1167.4,665.2a2.8,2.8,0,0,1-3.2-3.1,6.8,6.8,0,0,1,.6-2.9,4.9,4.9,0,0,1,1.6-2.1,3.7,3.7,0,0,1,2.3-.7,5.2,5.2,0,0,1,2.1.4l-.4,1.1a3.8,3.8,0,0,0-1.7-.4,2.5,2.5,0,0,0-1.6.6,3.1,3.1,0,0,0-1.1,1.6,6.4,6.4,0,0,0-.4,2.4,2,2,0,0,0,.5,1.5,1.7,1.7,0,0,0,1.4.6l1.1-.2.9-.4v1.2A4.6,4.6,0,0,1,1167.4,665.2Z" transform="translate(0.5 60.1)" style="fill:#00030e"/><path d="M1175.6,656.4a2.4,2.4,0,0,1,2.2,1.5h0l.6-1.4h1l-1.9,8.6h-1l.2-1.6h-.1a3.9,3.9,0,0,1-2.9,1.7,2.1,2.1,0,0,1-1.7-.7,3.3,3.3,0,0,1-.6-2.1,9.4,9.4,0,0,1,.5-3,4.7,4.7,0,0,1,1.6-2.2A3.2,3.2,0,0,1,1175.6,656.4Zm-1.5,7.8a2.2,2.2,0,0,0,1.5-.8,6.4,6.4,0,0,0,1.3-1.8,6.7,6.7,0,0,0,.4-2.4,1.6,1.6,0,0,0-.4-1.2,1.3,1.3,0,0,0-1.2-.5,2.1,2.1,0,0,0-1.5.7,5,5,0,0,0-1.1,1.8,8.6,8.6,0,0,0-.4,2.4,2.2,2.2,0,0,0,.4,1.3A1.2,1.2,0,0,0,1174.1,664.2Z" transform="translate(0.5 60.1)" style="fill:#00030e"/><path d="M1182.7,664.2l1.1-.2v1l-.6.2h-.6a2.1,2.1,0,0,1-1.5-.4,1.6,1.6,0,0,1-.5-1.4,5.7,5.7,0,0,1,.1-1.2l1-4.7h-1.4l.2-.5,1.4-.6,1-1.8h.7l-.4,1.9h2.1l-.2,1H1183l-1,4.7a4.9,4.9,0,0,0-.1,1.1c0,.3,0,.5.2.6A.7.7,0,0,0,1182.7,664.2Z" transform="translate(0.5 60.1)" style="fill:#00030e"/><path d="M1186.6,665.1h-1.3l1.8-8.6h1.3Zm.9-10.7a1.2,1.2,0,0,1,.2-.7.9.9,0,0,1,.7-.3.6.6,0,0,1,.7.7.9.9,0,0,1-.3.7.9.9,0,0,1-.6.3l-.5-.2C1187.5,654.8,1187.5,654.6,1187.5,654.4Z" transform="translate(0.5 60.1)" style="fill:#00030e"/><path d="M1193.9,656.4a3,3,0,0,1,2.3.9,3.2,3.2,0,0,1,.9,2.4,6.7,6.7,0,0,1-.6,2.8,5.3,5.3,0,0,1-1.5,2,3.4,3.4,0,0,1-2.2.7,3,3,0,0,1-2.3-.9,3.2,3.2,0,0,1-.9-2.4,6.7,6.7,0,0,1,.6-2.8,6.2,6.2,0,0,1,1.5-2A4.4,4.4,0,0,1,1193.9,656.4Zm1.8,3.1a1.9,1.9,0,0,0-.5-1.4,1.5,1.5,0,0,0-1.3-.6,2,2,0,0,0-1.5.6,3.8,3.8,0,0,0-1.1,1.6,8.5,8.5,0,0,0-.3,2.3,2.1,2.1,0,0,0,.5,1.6,2,2,0,0,0,1.4.5,2.4,2.4,0,0,0,1.4-.5,4.2,4.2,0,0,0,1.1-1.7A8.8,8.8,0,0,0,1195.7,659.5Z" transform="translate(0.5 60.1)" style="fill:#00030e"/><path d="M1203.5,665.1l1.2-5.4a5.4,5.4,0,0,0,.1-1.1,1,1,0,0,0-.3-.8c-.1-.2-.4-.3-.8-.3a1.9,1.9,0,0,0-1.4.5,5.1,5.1,0,0,0-1.2,1.3,10.3,10.3,0,0,0-.7,2.1l-.8,3.7h-1.3l1.8-8.6h1.1l-.2,1.6h.1a5.4,5.4,0,0,1,1.4-1.3,2.8,2.8,0,0,1,1.5-.4,2.3,2.3,0,0,1,1.5.5,2,2,0,0,1,.6,1.5,4.1,4.1,0,0,1-.2,1.5l-1.1,5.2Z" transform="translate(0.5 60.1)" style="fill:#00030e"/><path d="M1097.2,685.8a13,13,0,0,1,.9-4.9,15,15,0,0,1,3-4.4h1.2a19.7,19.7,0,0,0-2.9,4.4,13.6,13.6,0,0,0-.9,4.8,11.3,11.3,0,0,0,.9,4.7h-1.1A10.1,10.1,0,0,1,1097.2,685.8Z" transform="translate(0.5 60.1)" style="fill:#00030e"/><path d="M1108.2,684.6a2.8,2.8,0,0,1-1.1,2.5,4.6,4.6,0,0,1-3.1.9h-1.4a2.8,2.8,0,0,1-1.2-.4v-1.3a5,5,0,0,0,2.7.7,3.2,3.2,0,0,0,2-.6,1.9,1.9,0,0,0,.7-1.6,1.5,1.5,0,0,0-.4-1.1,7.3,7.3,0,0,0-1.5-1.1,5,5,0,0,1-1.7-1.3,2.9,2.9,0,0,1-.4-1.6,3.1,3.1,0,0,1,1-2.4,4,4,0,0,1,2.7-.9l1.4.2a4.4,4.4,0,0,1,1.5.5l-.6,1.2-1.1-.5-1.2-.2a2.5,2.5,0,0,0-1.7.6,1.7,1.7,0,0,0-.6,1.4,1.5,1.5,0,0,0,.1.7l.5.6c.1.2.5.4,1.1.7l1.5,1.1a2.4,2.4,0,0,1,.6.9A3.6,3.6,0,0,1,1108.2,684.6Z" transform="translate(0.5 60.1)" style="fill:#00030e"/><path d="M1112.1,683.1l-1,4.8h-1.3l2.4-11.4h2.5c2.3,0,3.5.9,3.5,2.8s-1,3-2.9,3.5l1.9,5.1h-1.5l-1.6-4.8Zm1.2-5.4a40,40,0,0,0-.9,4.3h1.3a3.3,3.3,0,0,0,2.3-.7,2.3,2.3,0,0,0,.8-1.9,1.7,1.7,0,0,0-.5-1.3,2.9,2.9,0,0,0-1.7-.4Z" transform="translate(0.5 60.1)" style="fill:#00030e"/><path d="M1125.3,684.6a3.1,3.1,0,0,1-1.1,2.5,4.6,4.6,0,0,1-3.1.9h-1.4a2.8,2.8,0,0,1-1.2-.4v-1.3a4.8,4.8,0,0,0,2.6.7,2.8,2.8,0,0,0,2-.6,1.9,1.9,0,0,0,.8-1.6,2.1,2.1,0,0,0-.4-1.1,7.3,7.3,0,0,0-1.5-1.1,5,5,0,0,1-1.7-1.3,2.9,2.9,0,0,1-.4-1.6,3.1,3.1,0,0,1,1-2.4,4,4,0,0,1,2.7-.9l1.4.2a3.9,3.9,0,0,1,1.4.5l-.5,1.2-1.1-.5-1.2-.2a2.4,2.4,0,0,0-1.7.6,1.7,1.7,0,0,0-.6,1.4,1.5,1.5,0,0,0,.1.7,2.1,2.1,0,0,0,.4.6l1.1.7,1.6,1.1a2.4,2.4,0,0,1,.6.9A3.6,3.6,0,0,1,1125.3,684.6Z" transform="translate(0.5 60.1)" style="fill:#00030e"/><path d="M1130.1,681.2a11.6,11.6,0,0,1-1,4.9,14.2,14.2,0,0,1-2.9,4.3H1125a13.8,13.8,0,0,0,3.8-9.2,11.3,11.3,0,0,0-.9-4.7h1.1A10.2,10.2,0,0,1,1130.1,681.2Z" transform="translate(0.5 60.1)" style="fill:#00030e"/><path d="M1145,681a8,8,0,0,1-.8,3.6,4.9,4.9,0,0,1-2.3,2.4,6.9,6.9,0,0,1-3.6.9h-2.7l2.4-11.4h2.6a4.2,4.2,0,0,1,3.3,1.2A4.7,4.7,0,0,1,1145,681Zm-6.6,5.7a5.3,5.3,0,0,0,2.8-.7,4.4,4.4,0,0,0,1.8-2,7,7,0,0,0,.6-3,3.3,3.3,0,0,0-.8-2.5,2.9,2.9,0,0,0-2.3-.9h-1.4l-2,9.1Z" transform="translate(0.5 60.1)" style="fill:#00030e"/><path d="M1150.5,679.2a3.2,3.2,0,0,1,2.4.9,3.6,3.6,0,0,1,.8,2.4,8.7,8.7,0,0,1-.5,2.8,4.6,4.6,0,0,1-1.6,2,3.1,3.1,0,0,1-2.1.7,3.2,3.2,0,0,1-2.4-.9,3.6,3.6,0,0,1-.8-2.4,6.7,6.7,0,0,1,.6-2.8,4.3,4.3,0,0,1,1.5-2A3.8,3.8,0,0,1,1150.5,679.2Zm1.9,3.1a2.2,2.2,0,0,0-.5-1.4,1.6,1.6,0,0,0-1.3-.6,2.5,2.5,0,0,0-1.6.6,3.7,3.7,0,0,0-1,1.6,5.9,5.9,0,0,0-.4,2.3,2.5,2.5,0,0,0,.5,1.6,2,2,0,0,0,1.4.5,2.5,2.5,0,0,0,1.5-.5,4,4,0,0,0,1-1.7A8.6,8.6,0,0,0,1152.4,682.3Z" transform="translate(0.5 60.1)" style="fill:#00030e"/><path d="M1158.4,688a2.8,2.8,0,0,1-2.3-.8,3,3,0,0,1-.9-2.3,6.8,6.8,0,0,1,.6-2.9,4.9,4.9,0,0,1,1.6-2.1,3.7,3.7,0,0,1,2.3-.7,5.2,5.2,0,0,1,2.1.4l-.4,1.1a3.8,3.8,0,0,0-1.7-.4,2.5,2.5,0,0,0-1.6.6,3.8,3.8,0,0,0-1.1,1.6,6.4,6.4,0,0,0-.4,2.4,2,2,0,0,0,.5,1.5,1.7,1.7,0,0,0,1.4.6l1.1-.2,1-.4v1.1A4.2,4.2,0,0,1,1158.4,688Z" transform="translate(0.5 60.1)" style="fill:#00030e"/><path d="M1165.2,679.3l-1.2,5.5a4.1,4.1,0,0,0-.1,1c0,.8.3,1.2,1.1,1.2a2.7,2.7,0,0,0,1.4-.5,4,4,0,0,0,1.1-1.4,5.1,5.1,0,0,0,.8-2.1l.8-3.7h1.3l-1.8,8.6h-1.1l.2-1.6h-.1a4.8,4.8,0,0,1-1.5,1.4,3.5,3.5,0,0,1-1.4.3,2.1,2.1,0,0,1-1.6-.5,2,2,0,0,1-.6-1.5,9.3,9.3,0,0,1,.2-1.4l1.1-5.3Z" transform="translate(0.5 60.1)" style="fill:#00030e"/><path d="M1176.3,687.9l1.1-5.4a6.5,6.5,0,0,0,.2-1.1,1.1,1.1,0,0,0-.3-.8c-.1-.2-.4-.3-.8-.3a2,2,0,0,0-1.3.5,5,5,0,0,0-1.1,1.3,10.3,10.3,0,0,0-.7,2.1l-.8,3.7h-1.3l1.8-8.6h1.1v1.6h0a5.5,5.5,0,0,1,1.4-1.3,2.3,2.3,0,0,1,1.4-.4,1.7,1.7,0,0,1,1.3.5,2,2,0,0,1,.6,1.4h.1a4.7,4.7,0,0,1,1.4-1.4,2.3,2.3,0,0,1,1.5-.5,2.1,2.1,0,0,1,1.5.5,2.1,2.1,0,0,1,.6,1.6,8.3,8.3,0,0,1-.2,1.3l-1.1,5.3h-1.3l1.1-5.4a8.9,8.9,0,0,0,.2-1.1,1,1,0,0,0-.3-.8,1.1,1.1,0,0,0-.8-.3,2,2,0,0,0-1.3.4,4.7,4.7,0,0,0-1.1,1.3,9.3,9.3,0,0,0-.7,2l-.8,3.9Z" transform="translate(0.5 60.1)" style="fill:#00030e"/><path d="M1188.6,688a2.7,2.7,0,0,1-2.2-.8,3.2,3.2,0,0,1-.9-2.4,7.1,7.1,0,0,1,.6-2.8,4.9,4.9,0,0,1,1.6-2.1,3.1,3.1,0,0,1,2.1-.7,3,3,0,0,1,1.8.5,1.9,1.9,0,0,1,.6,1.5,2.7,2.7,0,0,1-1.3,2.2,7.5,7.5,0,0,1-3.7.8h-.3v.6a2.1,2.1,0,0,0,.5,1.6,2,2,0,0,0,1.4.5h1.1l1.2-.5v1.1a3.8,3.8,0,0,1-1.2.5Zm1.1-7.7a2.1,2.1,0,0,0-1.5.7,5.2,5.2,0,0,0-1.1,2.1h.1a6.2,6.2,0,0,0,2.7-.5,1.4,1.4,0,0,0,1-1.3.9.9,0,0,0-.3-.7A1.2,1.2,0,0,0,1189.7,680.3Z" transform="translate(0.5 60.1)" style="fill:#00030e"/><path d="M1198.3,687.9l1.2-5.4a5.4,5.4,0,0,0,.1-1.1,1.5,1.5,0,0,0-.2-.8,1.2,1.2,0,0,0-.9-.3,2,2,0,0,0-1.4.5,3.6,3.6,0,0,0-1.1,1.3,6.6,6.6,0,0,0-.8,2.1l-.8,3.7h-1.3l1.8-8.6h1.1l-.2,1.6h.1a4.4,4.4,0,0,1,1.5-1.3,2.3,2.3,0,0,1,1.4-.4,2.5,2.5,0,0,1,1.6.5,2,2,0,0,1,.5,1.5,6.6,6.6,0,0,1-.1,1.4l-1.1,5.3Z" transform="translate(0.5 60.1)" style="fill:#00030e"/><path d="M1204.9,687l1.2-.2v1l-.7.2h-.6a2.1,2.1,0,0,1-1.5-.4,1.6,1.6,0,0,1-.5-1.4,5.3,5.3,0,0,1,.1-1.2l1-4.7h-1.3v-.5l1.4-.6,1-1.8h.7l-.4,1.9h2.2l-.2,1h-2.2l-1,4.7a4.9,4.9,0,0,0-.1,1.1.8.8,0,0,0,.2.6A.9.9,0,0,0,1204.9,687Z" transform="translate(0.5 60.1)" style="fill:#00030e"/><path d="M932,947.7a7.4,7.4,0,1,0,7.3-7.4A7.3,7.3,0,0,0,932,947.7Z" transform="translate(0.5 60.1)" style="fill:#fff"/><path d="M932,947.7a7.4,7.4,0,1,0,7.3-7.4A7.3,7.3,0,0,0,932,947.7Z" transform="translate(0.5 60.1)" style="fill:none;stroke:#1d262d;stroke-miterlimit:10;stroke-width:0.25px"/><path d="M939.3,951.5a3.9,3.9,0,0,0,3.9-3.8,4,4,0,0,0-3.9-3.9,3.9,3.9,0,0,0-3.8,3.9A3.8,3.8,0,0,0,939.3,951.5Z" transform="translate(0.5 60.1)" style="fill:#42445d"/><path d="M911,947.7a7.4,7.4,0,1,0,7.3-7.4A7.3,7.3,0,0,0,911,947.7Z" transform="translate(0.5 60.1)" style="fill:#fff"/><path d="M911,947.7a7.4,7.4,0,1,0,7.3-7.4A7.3,7.3,0,0,0,911,947.7Z" transform="translate(0.5 60.1)" style="fill:none;stroke:#1d262d;stroke-miterlimit:10;stroke-width:0.25px"/><path d="M890,947.7a7.4,7.4,0,1,0,7.4-7.4A7.4,7.4,0,0,0,890,947.7Z" transform="translate(0.5 60.1)" style="fill:#fff"/><path d="M890,947.7a7.4,7.4,0,1,0,7.4-7.4A7.4,7.4,0,0,0,890,947.7Z" transform="translate(0.5 60.1)" style="fill:none;stroke:#1d262d;stroke-miterlimit:10;stroke-width:0.25px"/><path d="M869,947.7a7.4,7.4,0,1,0,7.4-7.4A7.4,7.4,0,0,0,869,947.7Z" transform="translate(0.5 60.1)" style="fill:#fff"/><path d="M869,947.7a7.4,7.4,0,1,0,7.4-7.4A7.4,7.4,0,0,0,869,947.7Z" transform="translate(0.5 60.1)" style="fill:none;stroke:#1d262d;stroke-miterlimit:10;stroke-width:0.25px"/><path d="M848,947.7a7.4,7.4,0,0,0,7.4,7.3,7.4,7.4,0,0,0,0-14.7A7.4,7.4,0,0,0,848,947.7Z" transform="translate(0.5 60.1)" style="fill:#fff"/><path d="M848,947.7a7.4,7.4,0,0,0,7.4,7.3,7.4,7.4,0,0,0,0-14.7A7.4,7.4,0,0,0,848,947.7Z" transform="translate(0.5 60.1)" style="fill:none;stroke:#1d262d;stroke-miterlimit:10;stroke-width:0.25px"/><g style="mix-blend-mode:multiply;opacity:0.30000000000000004"><path d="M1106.4,830.6h-247a17.2,17.2,0,0,1-17.1-17.1h0a17.2,17.2,0,0,1,17.1-17.1h247Z" transform="translate(0.5 60.1)"/><path d="M1156.1,830.6h-49.7V796.4h49.7a17.1,17.1,0,0,1,17.1,17.1h0A17.1,17.1,0,0,1,1156.1,830.6Z" transform="translate(0.5 60.1)"/></g><path d="M1106.4,829.6h-247a17.2,17.2,0,0,1-17.1-17.1h0a17.2,17.2,0,0,1,17.1-17.1h247Z" transform="translate(0.5 60.1)" style="fill:#fff"/><path d="M1156.1,829.6h-49.7V795.4h49.7a17.1,17.1,0,0,1,17.1,17.1h0A17.1,17.1,0,0,1,1156.1,829.6Z" transform="translate(0.5 60.1)" style="fill:#42445d"/><path d="M865.6,808.6a.7.7,0,0,1,.2-.6h.9a.7.7,0,0,1,.2.6c0,.3,0,.5-.2.6l-.4.2-.5-.2C865.6,809.1,865.6,808.9,865.6,808.6Zm1.2,9.7h-1.1v-7.6h1.1Z" transform="translate(0.5 60.1)" style="fill:#42445d"/><path d="M874.3,816.2a1.9,1.9,0,0,1-.8,1.7,3.4,3.4,0,0,1-2.2.6,4.6,4.6,0,0,1-2.3-.5v-1.1l1.1.4a3,3,0,0,0,1.2.2,2.4,2.4,0,0,0,1.4-.3.9.9,0,0,0,.5-.9.8.8,0,0,0-.4-.7,4.7,4.7,0,0,0-1.5-.8,5.3,5.3,0,0,1-1.5-.7,1.7,1.7,0,0,1-.6-.6,1.6,1.6,0,0,1-.3-.9,1.8,1.8,0,0,1,.8-1.5,3.3,3.3,0,0,1,2.1-.5,5.2,5.2,0,0,1,2.4.5l-.4.9a6.3,6.3,0,0,0-2.1-.5,1.7,1.7,0,0,0-1.2.3c-.3.2-.5.4-.5.7a.8.8,0,0,0,.2.5,1,1,0,0,0,.5.4l1.3.6a4.8,4.8,0,0,1,1.9,1A1.6,1.6,0,0,1,874.3,816.2Z" transform="translate(0.5 60.1)" style="fill:#42445d"/><path d="M882.9,814.5a4.4,4.4,0,0,1-.9,2.9,3.3,3.3,0,0,1-2.6,1.1,3.5,3.5,0,0,1-1.8-.5,3.3,3.3,0,0,1-1.2-1.4,4.6,4.6,0,0,1-.5-2.1,3.9,3.9,0,0,1,1-2.9,3.3,3.3,0,0,1,2.6-1,3.2,3.2,0,0,1,2.5,1A4.4,4.4,0,0,1,882.9,814.5Zm-5.8,0a3.4,3.4,0,0,0,.6,2.2,2.1,2.1,0,0,0,1.7.8,2.2,2.2,0,0,0,1.8-.8,5.1,5.1,0,0,0,0-4.4,2.2,2.2,0,0,0-1.8-.8,2.1,2.1,0,0,0-1.7.8A3.4,3.4,0,0,0,877.1,814.5Z" transform="translate(0.5 60.1)" style="fill:#42445d"/><path d="M894.8,818.3v-4.9a2,2,0,0,0-.4-1.4,1.4,1.4,0,0,0-1.2-.5,1.9,1.9,0,0,0-1.6.7,3.1,3.1,0,0,0-.5,1.9v4.2H890v-4.9a2.6,2.6,0,0,0-.4-1.4,1.7,1.7,0,0,0-1.2-.5,1.9,1.9,0,0,0-1.6.7,3,3,0,0,0-.5,2.1v4h-1.2v-7.6h.9l.2,1h.1a2.4,2.4,0,0,1,.9-.8,3.1,3.1,0,0,1,1.3-.3,2.4,2.4,0,0,1,2.4,1.2h0a2.8,2.8,0,0,1,1-.9,3.7,3.7,0,0,1,1.5-.3,2.5,2.5,0,0,1,1.9.6,2.8,2.8,0,0,1,.7,2.1v5Z" transform="translate(0.5 60.1)" style="fill:#42445d"/><path d="M901.7,818.5a3.3,3.3,0,0,1-2.6-1.1,3.7,3.7,0,0,1-1-2.8,4.7,4.7,0,0,1,.9-3,3,3,0,0,1,2.4-1,3,3,0,0,1,2.3.9,3.9,3.9,0,0,1,.8,2.5v.7h-5.2a2.8,2.8,0,0,0,.7,2.1,2.4,2.4,0,0,0,1.8.6,5.2,5.2,0,0,0,2.4-.5V818a5.3,5.3,0,0,1-1.2.3Zm-.3-7a2,2,0,0,0-1.5.6,3.8,3.8,0,0,0-.6,1.7h4a2.6,2.6,0,0,0-.5-1.7A1.7,1.7,0,0,0,901.4,811.5Z" transform="translate(0.5 60.1)" style="fill:#42445d"/><path d="M917.4,813.2a5.8,5.8,0,0,1-.3,1.9,2.7,2.7,0,0,1-.9,1.2,2.1,2.1,0,0,1-1.3.5,1.3,1.3,0,0,1-1-.4,1.3,1.3,0,0,1-.5-.9h0a2.4,2.4,0,0,1-.8.9,1.9,1.9,0,0,1-1.2.4,2.4,2.4,0,0,1-1.7-.7,3.5,3.5,0,0,1,.3-4.3,2.6,2.6,0,0,1,2.1-.9h1.1l1.1.3-.2,3.2v.2q0,1.2.9,1.2a1,1,0,0,0,1-.7,4,4,0,0,0,.4-2,4.2,4.2,0,0,0-.5-2.2,3.2,3.2,0,0,0-1.4-1.4,4.2,4.2,0,0,0-2.2-.5,5.4,5.4,0,0,0-2.7.6,3.9,3.9,0,0,0-1.8,1.8,6.4,6.4,0,0,0-.6,2.8,3.9,3.9,0,0,0,4.4,4.4,8.4,8.4,0,0,0,3-.6v.9a7.3,7.3,0,0,1-3,.6,5.7,5.7,0,0,1-4-1.4,5.3,5.3,0,0,1-1.3-3.9,6.8,6.8,0,0,1,.7-3.2,6.3,6.3,0,0,1,2.1-2.2,6.6,6.6,0,0,1,3.2-.7,5.3,5.3,0,0,1,2.6.6,3.9,3.9,0,0,1,1.8,1.8A4.6,4.6,0,0,1,917.4,813.2Zm-7.2,1c0,1.1.4,1.7,1.3,1.7s1.5-.7,1.6-2.2v-1.8h-1.1a1.7,1.7,0,0,0-1.4.6A3,3,0,0,0,910.2,814.2Z" transform="translate(0.5 60.1)" style="fill:#42445d"/><path d="M924.8,818.3v-4.9a2,2,0,0,0-.4-1.4,1.7,1.7,0,0,0-1.3-.5,2.5,2.5,0,0,0-1.8.7,2.9,2.9,0,0,0-.6,2.1v4h-1.1v-7.6h.9l.2,1h.1a2.1,2.1,0,0,1,1-.8,3.2,3.2,0,0,1,1.4-.3,2.4,2.4,0,0,1,2.8,2.7v5Z" transform="translate(0.5 60.1)" style="fill:#42445d"/><path d="M928.4,808.6a.7.7,0,0,1,.2-.6h.9a.7.7,0,0,1,.2.6c0,.3,0,.5-.2.6l-.4.2-.5-.2C928.4,809.1,928.4,808.9,928.4,808.6Zm1.2,9.7h-1.1v-7.6h1.1Z" transform="translate(0.5 60.1)" style="fill:#42445d"/><path d="M934.7,817.5h1v.8l-.5.2h-.7c-1.5,0-2.2-.8-2.2-2.4v-4.5h-1.1V811l1.1-.4.5-1.7h.7v1.8h2.2v.9h-2.2v4.5a1.5,1.5,0,0,0,.3,1A1,1,0,0,0,934.7,817.5Z" transform="translate(0.5 60.1)" style="fill:#42445d"/><path d="M940.9,810.6h.9l-.2,1.1h-.8a2.1,2.1,0,0,0-1.6.8,2.9,2.9,0,0,0-.7,1.8v4.1h-1.1v-7.6h.9l.2,1.4h0a2.9,2.9,0,0,1,1.1-1.1A2,2,0,0,1,940.9,810.6Z" transform="translate(0.5 60.1)" style="fill:#42445d"/><path d="M949.9,814.5a4.4,4.4,0,0,1-.9,2.9,3.3,3.3,0,0,1-2.6,1.1,3.5,3.5,0,0,1-1.8-.5,2.8,2.8,0,0,1-1.2-1.4,4.6,4.6,0,0,1-.5-2.1,3.9,3.9,0,0,1,1-2.9,3,3,0,0,1,2.5-1,3.3,3.3,0,0,1,2.6,1A4.4,4.4,0,0,1,949.9,814.5Zm-5.8,0a3.4,3.4,0,0,0,.6,2.2,2.1,2.1,0,0,0,1.7.8,1.9,1.9,0,0,0,1.7-.8,4.3,4.3,0,0,0,0-4.4,1.9,1.9,0,0,0-1.7-.8,2.1,2.1,0,0,0-1.7.8A3.4,3.4,0,0,0,944.1,814.5Z" transform="translate(0.5 60.1)" style="fill:#42445d"/><path d="M954.6,817.5h1v.8l-.6.2h-.6c-1.5,0-2.2-.8-2.2-2.4v-4.5h-1.1V811l1.1-.4.5-1.7h.6v1.8h2.2v.9h-2.2v4.5a1.2,1.2,0,0,0,.4,1A1,1,0,0,0,954.6,817.5Z" transform="translate(0.5 60.1)" style="fill:#42445d"/><path d="M960.5,818.5a3.7,3.7,0,0,1-2.7-1.1,4.1,4.1,0,0,1-1-2.8,4.2,4.2,0,0,1,1-3,3,3,0,0,1,2.4-1,3.2,3.2,0,0,1,2.3.9,3.9,3.9,0,0,1,.8,2.5v.7H958a4,4,0,0,0,.7,2.1,2.6,2.6,0,0,0,1.8.6,5.3,5.3,0,0,0,2.5-.5V818a5.3,5.3,0,0,1-1.2.3Zm-.3-7a2,2,0,0,0-1.5.6,2.4,2.4,0,0,0-.6,1.7h4a2.6,2.6,0,0,0-.5-1.7A1.8,1.8,0,0,0,960.2,811.5Z" transform="translate(0.5 60.1)" style="fill:#42445d"/><path d="M968.4,818.5a3.1,3.1,0,0,1-2.5-1.1,3.9,3.9,0,0,1-.9-2.8,4.5,4.5,0,0,1,.9-3,3.3,3.3,0,0,1,2.6-1h1.1c.4.1.7.1.9.3l-.4.9-.8-.2h-.8c-1.6,0-2.3,1-2.3,2.9a4.2,4.2,0,0,0,.5,2.2,2.1,2.1,0,0,0,1.7.7,4.8,4.8,0,0,0,2-.4v1.1A5.4,5.4,0,0,1,968.4,818.5Z" transform="translate(0.5 60.1)" style="fill:#42445d"/><path d="M977.5,818.3v-4.9a2,2,0,0,0-.4-1.4,1.7,1.7,0,0,0-1.3-.5,2.5,2.5,0,0,0-1.8.7,3.6,3.6,0,0,0-.5,2.1v4h-1.2V807.5h1.2v3.3a3.1,3.1,0,0,1-.1,1h.1a1.8,1.8,0,0,1,1-.9,3.2,3.2,0,0,1,1.4-.3,3.3,3.3,0,0,1,2.1.6,2.8,2.8,0,0,1,.7,2.1v5Z" transform="translate(0.5 60.1)" style="fill:#42445d"/><path d="M985.9,818.3l-.2-1.1h-.1a3.3,3.3,0,0,1-1.1,1,3.2,3.2,0,0,1-1.4.3,2.4,2.4,0,0,1-1.8-.6,2.4,2.4,0,0,1-.7-1.7c0-1.5,1.3-2.3,3.7-2.4h1.3v-.4a2,2,0,0,0-.4-1.4,1.7,1.7,0,0,0-1.2-.4,4.8,4.8,0,0,0-2.1.6l-.4-.9,1.2-.5h1.4a2.8,2.8,0,0,1,2,.6,2.6,2.6,0,0,1,.7,1.9v5.2Zm-2.6-.8a2.4,2.4,0,0,0,1.7-.6,2.1,2.1,0,0,0,.6-1.6v-.7h-1.2a4.1,4.1,0,0,0-1.9.4,1.4,1.4,0,0,0-.6,1.2,1.5,1.5,0,0,0,.3,1A1.8,1.8,0,0,0,983.3,817.5Z" transform="translate(0.5 60.1)" style="fill:#42445d"/><path d="M994.2,816.2a2.1,2.1,0,0,1-.8,1.7,3.6,3.6,0,0,1-2.2.6,5.4,5.4,0,0,1-2.4-.5v-1.1l1.2.4a2.5,2.5,0,0,0,1.2.2,2.6,2.6,0,0,0,1.4-.3,1.1,1.1,0,0,0,.5-.9.8.8,0,0,0-.4-.7l-1.5-.8a5.3,5.3,0,0,1-1.5-.7l-.7-.6a2.9,2.9,0,0,1-.2-.9,1.6,1.6,0,0,1,.8-1.5,3,3,0,0,1,2-.5,4.7,4.7,0,0,1,2.4.5l-.4.9a5.4,5.4,0,0,0-2.1-.5,2.1,2.1,0,0,0-1.2.3.9.9,0,0,0-.3,1.2,1.3,1.3,0,0,0,.6.4l1.3.6a3.7,3.7,0,0,1,1.8,1A1.7,1.7,0,0,1,994.2,816.2Z" transform="translate(0.5 60.1)" style="fill:#42445d"/><path d="M996.1,808.6a1.4,1.4,0,0,1,.2-.6h1a1.4,1.4,0,0,1,.2.6.8.8,0,0,1-.2.6l-.5.2-.5-.2A.8.8,0,0,1,996.1,808.6Zm1.3,9.7h-1.2v-7.6h1.2Z" transform="translate(0.5 60.1)" style="fill:#42445d"/><path d="M1004.7,818.3l-.3-1.1h0a3.5,3.5,0,0,1-1.2,1,2.6,2.6,0,0,1-1.4.3,2.8,2.8,0,0,1-1.8-.6,2.4,2.4,0,0,1-.6-1.7c0-1.5,1.2-2.3,3.7-2.4h1.3v-.4a2,2,0,0,0-.4-1.4,2.1,2.1,0,0,0-1.2-.4,4.9,4.9,0,0,0-2.2.6l-.4-.9,1.3-.5h1.3a3.3,3.3,0,0,1,2.1.6,2.5,2.5,0,0,1,.6,1.9v5.2Zm-2.7-.8a2.2,2.2,0,0,0,1.7-.6,2.2,2.2,0,0,0,.7-1.6v-.7h-1.2a4.6,4.6,0,0,0-2,.4,1.4,1.4,0,0,0-.6,1.2,1.2,1.2,0,0,0,.4,1A1.5,1.5,0,0,0,1002,817.5Z" transform="translate(0.5 60.1)" style="fill:#42445d"/><path d="M1007.9,817.6c0-.3,0-.6.2-.7a.8.8,0,0,1,1.2,0c.2.1.2.4.2.7a.8.8,0,0,1-.2.7l-.6.2a1.1,1.1,0,0,1-.6-.2C1007.9,818.2,1007.9,817.9,1007.9,817.6Z" transform="translate(0.5 60.1)" style="fill:#42445d"/><path d="M1015,818.5a3.5,3.5,0,0,1-2.6-1.1,3.9,3.9,0,0,1-.9-2.8,4,4,0,0,1,1-3,3.3,3.3,0,0,1,2.6-1h1.1c.4.1.6.1.8.3l-.3.9-.8-.2h-.8c-1.6,0-2.4,1-2.4,2.9a3.4,3.4,0,0,0,.6,2.2,1.9,1.9,0,0,0,1.7.7,4.3,4.3,0,0,0,1.9-.4v1.1A4.9,4.9,0,0,1,1015,818.5Z" transform="translate(0.5 60.1)" style="fill:#42445d"/><path d="M1025.5,814.5a3.9,3.9,0,0,1-1,2.9,3.3,3.3,0,0,1-2.6,1.1,3.7,3.7,0,0,1-1.8-.5,3.3,3.3,0,0,1-1.2-1.4,4.6,4.6,0,0,1-.4-2.1,4.4,4.4,0,0,1,.9-2.9,3.3,3.3,0,0,1,2.6-1,3,3,0,0,1,2.5,1A3.9,3.9,0,0,1,1025.5,814.5Zm-5.8,0a4.2,4.2,0,0,0,.5,2.2,2.2,2.2,0,0,0,1.8.8,2.1,2.1,0,0,0,1.7-.8,4.3,4.3,0,0,0,0-4.4,2.2,2.2,0,0,0-1.8-.8,2.1,2.1,0,0,0-1.7.8A4.2,4.2,0,0,0,1019.7,814.5Z" transform="translate(0.5 60.1)" style="fill:#42445d"/><path d="M1037.4,818.3v-4.9a2.6,2.6,0,0,0-.4-1.4,1.9,1.9,0,0,0-2.8.2,2.5,2.5,0,0,0-.6,1.9v4.2h-1.1v-4.9a2,2,0,0,0-.4-1.4,1.7,1.7,0,0,0-1.2-.5,2,2,0,0,0-1.6.7,3.6,3.6,0,0,0-.5,2.1v4h-1.2v-7.6h1l.2,1h0a2.4,2.4,0,0,1,.9-.8,3.2,3.2,0,0,1,1.4-.3,2.3,2.3,0,0,1,2.3,1.2h.1a1.8,1.8,0,0,1,1-.9,3.2,3.2,0,0,1,1.4-.3,3,3,0,0,1,2,.6,3.3,3.3,0,0,1,.6,2.1v5Z" transform="translate(0.5 60.1)" style="fill:#42445d"/><path d="M1124.7,816a3.1,3.1,0,0,1-1.2,2.6,4.8,4.8,0,0,1-3.3,1,9.5,9.5,0,0,1-3.5-.7v-2.4a12.8,12.8,0,0,0,2.1.7l1.6.3a2.5,2.5,0,0,0,1.3-.4,1,1,0,0,0,.4-.9.8.8,0,0,0-.2-.7c-.1-.2-.3-.3-.6-.5l-1.5-.8a5,5,0,0,1-1.7-1.1,3.1,3.1,0,0,1-.9-1.1,3.3,3.3,0,0,1-.4-1.5,3.1,3.1,0,0,1,1.1-2.5,5,5,0,0,1,3.1-1,5.7,5.7,0,0,1,1.8.3,6.4,6.4,0,0,1,1.8.6l-.8,2-1.6-.5a3.2,3.2,0,0,0-1.3-.2,1.6,1.6,0,0,0-1.1.3,1.2,1.2,0,0,0-.4.9c0,.3,0,.5.1.6a1.2,1.2,0,0,0,.5.5l1.7.9a6.5,6.5,0,0,1,2.3,1.6A2.9,2.9,0,0,1,1124.7,816Z" transform="translate(0.5 60.1)" style="fill:#fff"/><path d="M1133.9,819.4h-7V807.2h7v2.1h-4.4V812h4.1v2.1h-4.1v3.2h4.4Z" transform="translate(0.5 60.1)" style="fill:#fff"/><path d="M1147.3,819.4H1144l-5.3-9.2h-.1c.1,1.6.2,2.8.2,3.5v5.7h-2.4V807.2h3.3l5.3,9.2h.1c-.1-1.6-.2-2.7-.2-3.4v-5.8h2.4Z" transform="translate(0.5 60.1)" style="fill:#fff"/><path d="M1160.5,813.2a6,6,0,0,1-1.7,4.6,7,7,0,0,1-5,1.6h-3.5V807.2h3.9a6.1,6.1,0,0,1,4.6,1.6A5.7,5.7,0,0,1,1160.5,813.2Zm-2.7.1c0-2.7-1.2-4-3.5-4h-1.4v8h1.1C1156.5,817.3,1157.8,815.9,1157.8,813.3Z" transform="translate(0.5 60.1)" style="fill:#fff"/><path d="M861.8,284.3a13.8,13.8,0,0,0-3,27.2V301.1h-2.3v-3.3h2.3v-1.1a7.1,7.1,0,0,1,.4-2.9,3,3,0,0,1,1.6-1.5,4.7,4.7,0,0,1,2.8-.7,12.7,12.7,0,0,1,3.4.5l-.5,2.9a6.8,6.8,0,0,0-1.9-.2c-.6,0-1.1.1-1.3.4a2.8,2.8,0,0,0-.4,1.6v1H866v3.3h-3.1v10.6a13.6,13.6,0,0,0,12.6-13.6A13.7,13.7,0,0,0,861.8,284.3Z" transform="translate(0.5 60.1)" style="fill:url(#z)"/><path d="M910.8,284.5a13.8,13.8,0,1,0,13.7,13.7A13.7,13.7,0,0,0,910.8,284.5Zm9.1,8.5a7.1,7.1,0,0,1-1.5,1.5c-.1.1-.2.2-.2.3a10.3,10.3,0,0,1-2.5,7.1,9.9,9.9,0,0,1-6,3.4,10.8,10.8,0,0,1-7.2-1.4h0a7.8,7.8,0,0,0,3.7-.6l1.5-.9a4.2,4.2,0,0,1-1.5-.4,3.5,3.5,0,0,1-1.7-1.9c-.1-.2-.1-.2.1-.2h1.3l-.8-.3a3.7,3.7,0,0,1-2-3.1c0-.2,0-.2.2-.1l1.4.4-.6-.6a3.9,3.9,0,0,1-.6-4.1c.1-.2.1-.2.3,0a10.2,10.2,0,0,0,6.3,3.5h.8c.1,0,.2-.1.1-.2a3.9,3.9,0,0,1,1.8-3.8,3.6,3.6,0,0,1,4.3.6h.4a6.4,6.4,0,0,0,1.9-.8h.1a3,3,0,0,1-1.5,2l2-.5C920,292.9,919.9,292.9,919.9,293Z" transform="translate(0.5 60.1)" style="fill:url(#aa)"/><path d="M964.5,297c-.2,0-.3,0-.2.3a7.4,7.4,0,0,1-.1,2.1,4.6,4.6,0,0,1-5.3,3.2,4.4,4.4,0,0,1-3.6-4.9c.1-.7,0-.7-.6-.7s-.7.1-.7.6.1,3.6.1,5.4.2.9.8.9h9.7c.7,0,.9-.2.9-.9v-5C965.5,296.9,965.5,296.9,964.5,297Z" transform="translate(0.5 60.1)" style="fill:url(#ab)"/><path d="M959.8,301a3,3,0,0,0,2.9-2.9,2.9,2.9,0,0,0-2.9-2.8,3,3,0,0,0-2.9,2.8A2.9,2.9,0,0,0,959.8,301Z" transform="translate(0.5 60.1)" style="fill:url(#ac)"/><path d="M964.1,292.4c-1.5,0-1.5,0-1.5,1.5s0,1.4,1.5,1.4,1.4,0,1.4-1.4S965.5,292.4,964.1,292.4Z" transform="translate(0.5 60.1)" style="fill:url(#ad)"/><path d="M959.8,284.4a13.8,13.8,0,1,0,13.7,13.8A13.7,13.7,0,0,0,959.8,284.4Zm7.4,19.2a1.8,1.8,0,0,1-1.9,2h-11a1.8,1.8,0,0,1-1.9-2V292.7c0-1.3.6-2,1.9-2h11a1.8,1.8,0,0,1,1.9,2Z" transform="translate(0.5 60.1)" style="fill:url(#ae)"/><rect x="0.5" y="60.1" width="1920" height="1080" style="fill:#00031e;stroke:#000;stroke-miterlimit:10;opacity:0.6"/></g></svg>