<svg xmlns="http://www.w3.org/2000/svg" viewBox="0 0 900 900"><path d="M0,713.7V614.1l60.9,58.6c1.7,1.7,3.3,3.4,5,5.3l5.4,6.3V617.9H85.7v99.6L23.6,657.8a57.9,57.9,0,0,1-4.8-5.1,61.2,61.2,0,0,1-4.5-5.6v66.6Z" style="fill:#333332"/><path d="M105.3,624.8a8.5,8.5,0,0,1,2.6-6.2,9,9,0,0,1,6.4-2.6,8.5,8.5,0,0,1,8.8,8.2v.6a8.9,8.9,0,0,1-8.8,9,9.1,9.1,0,0,1-6.4-2.7A8.8,8.8,0,0,1,105.3,624.8Zm1.9,88.9v-62h14.2v62Z" style="fill:#333332"/><path d="M145,713.7V664.1H134.2V651.7H145V628.2h14.2v23.5h10.9v12.4H159.2v49.6Z" style="fill:#333332"/><path d="M196.6,661.6c1.5-4.1,3.5-7.2,6-9.1a14.5,14.5,0,0,1,9.4-3,28.8,28.8,0,0,1,5.9.7,27.8,27.8,0,0,1,5.7,2.1l-5.1,12.1a12.5,12.5,0,0,0-4-2,18.4,18.4,0,0,0-4.7-.6q-7.1,0-10.2,5.7c-2,3.8-3,10.1-3,19v27.2H182.4V651.5h14.2Z" style="fill:#333332"/><path d="M227.1,682.8a33.8,33.8,0,0,1,2.6-12.9,35,35,0,0,1,7.5-10.8,32,32,0,0,1,11-7.1,34.6,34.6,0,0,1,37.3,7.3,35,35,0,0,1,7.5,10.8,34.3,34.3,0,0,1,0,25.6,31.2,31.2,0,0,1-7.4,10.6,37.2,37.2,0,0,1-11.3,7.5,35.6,35.6,0,0,1-26.1,0,34.8,34.8,0,0,1-18.5-18.2A32.9,32.9,0,0,1,227.1,682.8Zm53.4.1a19.9,19.9,0,0,0-5.6-14.6,17.6,17.6,0,0,0-13.6-6,18.1,18.1,0,0,0-13.6,6,21.8,21.8,0,0,0,0,29.2,18.4,18.4,0,0,0,26,1.2l1.2-1.2a20.7,20.7,0,0,0,5.6-14.6Z" style="fill:#333332"/><path d="M383.2,631.1v82.6H367.6V631.1H342.1V617.9h66.4v13.2Z" style="fill:#333332"/><path d="M465.6,684.8H415.9c.4,5.8,2.1,10.3,5.2,13.6a16.6,16.6,0,0,0,12.4,4.9,21.5,21.5,0,0,0,11.4-2.9c3.1-1.9,5.7-5,8-9.3l12,6.7c-3.5,6.2-7.8,10.9-13,13.9a35.5,35.5,0,0,1-18.1,4.6c-10,0-17.9-3-23.8-9.1s-8.8-14.2-8.8-24.3,3-17.7,9.1-24,13.9-9.4,23.5-9.4,17.8,2.9,23.4,8.6,8.4,13.7,8.4,24Zm-14.8-9.6a14.8,14.8,0,0,0-5.1-10.1c-2.8-2.4-6.7-3.5-11.6-3.5s-8.5,1.1-11.3,3.4-4.8,5.7-6,10.2Z" style="fill:#333332"/><path d="M526.7,669.4a21.8,21.8,0,0,0-7.6-5.5,23.6,23.6,0,0,0-9.4-1.9c-5.8,0-10.5,1.8-14,5.6s-5.2,8.7-5.2,14.9,1.8,11.6,5.3,15.2,8.3,5.6,14.5,5.6a21.3,21.3,0,0,0,9.3-2,18.2,18.2,0,0,0,7.1-5.8v16.3a36.1,36.1,0,0,1-8.4,3.4,43.3,43.3,0,0,1-9.5,1.1c-9.8,0-17.7-3.1-23.8-9.3s-9.2-14.2-9.2-24.1,3.1-18.1,9.5-24.2,14.6-9.2,24.9-9.2a38,38,0,0,1,8.9,1,29.1,29.1,0,0,1,7.6,2.9Z" style="fill:#333332"/><path d="M541.2,713.7V612.3h13.4v49.5a25.6,25.6,0,0,1,10-9.3,31,31,0,0,1,14-3,28.6,28.6,0,0,1,11.9,2.2,18.4,18.4,0,0,1,7.6,6.5,16.3,16.3,0,0,1,2.3,6,67.4,67.4,0,0,1,.8,11.9v37.6H586.8V681.9c0-8.2-1-13.6-3-16.3s-5.5-4-10.5-4a20.9,20.9,0,0,0-8.9,1.8,14,14,0,0,0-6.1,5.2,13.3,13.3,0,0,0-2.2,5.7,70.1,70.1,0,0,0-.6,11.2v28.2Z" style="fill:#333332"/><path d="M725,713.7l-10.8-24.6h-38l-11.1,24.6H648.7l46.4-99.6,46.4,99.6Zm-43-37.6h26.7l-9.8-21.9q-.9-2.1-1.8-4.8l-1.9-6c-.5,2.1-1,4-1.6,5.8s-1.2,3.5-1.8,5Z" style="fill:#333332"/><path d="M742.2,702.5l11.8-6.4a12.2,12.2,0,0,0,4.8,7,15.5,15.5,0,0,0,9.1,2.5,12.5,12.5,0,0,0,7.5-2.2,7.4,7.4,0,0,0,2.7-6q0-5.1-9.6-8.7l-5.1-1.9c-6.6-2.8-11.3-5.6-13.9-8.4a14.7,14.7,0,0,1-4-10.4,16,16,0,0,1,6.6-13.4c4.3-3.5,10-5.2,17.2-5.2a27.5,27.5,0,0,1,12.3,2.6,15.8,15.8,0,0,1,7.5,7.6l-10,6.9a9.7,9.7,0,0,0-3.9-4.6,12.2,12.2,0,0,0-6.5-1.8,10.2,10.2,0,0,0-6.5,2,6.3,6.3,0,0,0-2.5,5.1c0,3.2,3.7,6.2,11,8.8l5.4,2.1c5.7,2.2,9.8,4.8,12.3,7.7a15.5,15.5,0,0,1,3.7,10.7c0,6.2-2.3,11-6.8,14.5s-10.6,5.3-18.5,5.3c-6.1,0-11.2-1.1-15.2-3.4A23.7,23.7,0,0,1,742.2,702.5Z" style="fill:#333332"/><path d="M805.2,624.8a8.5,8.5,0,0,1,2.6-6.2,9,9,0,0,1,6.4-2.6,8.5,8.5,0,0,1,8.8,8.2v.6a8.9,8.9,0,0,1-8.8,9,9.1,9.1,0,0,1-6.4-2.7A8.8,8.8,0,0,1,805.2,624.8Zm1.9,88.9v-62h14.2v62Z" style="fill:#333332"/><path d="M900,713.7H885.8v-8a23.6,23.6,0,0,1-20.5,10.6q-13.2,0-20.7-9c-5.1-6-7.6-14.2-7.6-24.7s2.6-17.9,7.7-24a27.3,27.3,0,0,1,33.2-5.9,18.9,18.9,0,0,1,7.9,9.1V651.7H900Zm-13.8-31.2q0-9.6-4.5-15c-3-3.6-7.2-5.3-12.5-5.3s-9.6,1.8-12.7,5.5-4.6,8.8-4.6,15.3,1.5,11.7,4.4,15.3,7.2,5.4,12.6,5.4a15.5,15.5,0,0,0,12.5-5.9C884.6,694,886.2,688.8,886.2,682.5Z" style="fill:#333332"/><path d="M768.5,299.5,669,301.9l45.2,91.9H620.7l-42.1,88.7H758l44,89.3,98-1.2Z" style="fill:#f86305"/><polygon points="401.3 571.8 501.2 571.8 646.2 274.3 754.4 273.9 710.4 182.8 460.4 182.5 416.1 274.4 547.5 274.4 401.3 571.8" style="fill:#333332"/><polygon points="501.2 299.4 403.2 299.2 316.2 474.6 251.3 341.7 202 439.6 266.7 571.3 366.6 571.8 501.2 299.4" style="fill:#f86305"/><polygon points="314.9 405.2 365 303.1 304.6 182.5 193 182.5 0 571.8 103.5 571.5 250.3 274 314.9 405.2" style="fill:#333332"/></svg>