<svg xmlns="http://www.w3.org/2000/svg" viewBox="0 0 287.9 272.4"><path d="M1680.5,305c.1-2.4.4-4.8.4-7.2l.3-222.6c0-7.4,0-7.4,7.1-7.4,16.7,0,33.4.1,50-.1,4.3,0,5.8,1.1,5.8,5.6q-.1,130.5,0,261.1c0,4.3-1.1,5.8-5.6,5.7-34.6-.1-69.3,0-104-.2a10.7,10.7,0,0,1-6.9-2.9q-36.9-36.6-73.5-73.5a9.4,9.4,0,0,1-2.8-6c-.2-25.1-.1-50.3-.1-75.5,0-.6.1-1.2,1.4-2.8q63.3,63.2,126.5,126.4Z" transform="translate(-1456.2 -67.7)" style="fill:#f86305"/><path d="M1519.1,103.3V339.8h-62.9V67.9h4.7c34.8,0,69.7,0,104.5.2a11.6,11.6,0,0,1,7.3,3q36.9,36.6,73.5,73.5a9.3,9.3,0,0,1,2.8,5.9q.3,37.5.1,75a26.3,26.3,0,0,1-.4,3.9L1521.2,101.9Z" transform="translate(-1456.2 -67.7)" style="fill:#333332"/></svg>